<svg enable-background="new 0 0 512 512" viewBox="0 0 512 512" xmlns="http://www.w3.org/2000/svg"><path d="m0 .235h511.53v511.53h-511.53z" fill="#f5f5f5"/><path d="m0 .235h512v39.34h-512z" fill="#ff4b55"/><path d="m0 157.63h512v39.34h-512z" fill="#ff4b55"/><path d="m0 78.935h512v39.34h-512z" fill="#ff4b55"/><path d="m0 236.32h512v39.34h-512z" fill="#ff4b55"/><path d="m0 393.71h512v39.34h-512z" fill="#ff4b55"/><path d="m0 472.41h512v39.34h-512z" fill="#ff4b55"/><path d="m0 315.02h512v39.34h-512z" fill="#ff4b55"/><path d="m0 .235h275.44v275.44h-275.44z" fill="#41479b"/><g fill="#f5f5f5"><path d="m35.219 20.814 2.122 6.364 6.708.052c.868.007 1.229 1.115.53 1.631l-5.396 3.985 2.023 6.396c.262.828-.68 1.513-1.388 1.008l-5.458-3.901-5.458 3.901c-.706.506-1.649-.18-1.388-1.008l2.023-6.396-5.396-3.985c-.698-.516-.339-1.624.53-1.631l6.708-.052 2.122-6.364c.278-.824 1.444-.824 1.718 0z"/><path d="m35.219 73.902 2.122 6.364 6.708.052c.868.007 1.229 1.115.53 1.631l-5.396 3.985 2.023 6.396c.262.828-.68 1.513-1.388 1.008l-5.458-3.901-5.458 3.901c-.706.506-1.649-.18-1.388-1.008l2.023-6.396-5.396-3.985c-.698-.516-.339-1.624.53-1.631l6.708-.052 2.122-6.364c.278-.825 1.444-.825 1.718 0z"/><path d="m35.219 132.78 2.122 6.364 6.708.052c.868.007 1.229 1.115.53 1.632l-5.396 3.985 2.023 6.396c.262.828-.68 1.513-1.388 1.008l-5.458-3.901-5.458 3.901c-.706.506-1.649-.18-1.388-1.008l2.023-6.396-5.396-3.985c-.698-.516-.339-1.625.53-1.632l6.708-.052 2.122-6.364c.278-.824 1.444-.824 1.718 0z"/><path d="m35.219 186.876 2.122 6.364 6.708.052c.868.007 1.229 1.115.53 1.631l-5.396 3.985 2.023 6.396c.262.828-.68 1.513-1.388 1.008l-5.458-3.901-5.458 3.901c-.706.506-1.649-.18-1.388-1.008l2.023-6.396-5.396-3.985c-.698-.516-.339-1.624.53-1.631l6.708-.052 2.122-6.364c.278-.824 1.444-.824 1.718 0z"/><path d="m35.219 236.102 2.122 6.364 6.708.052c.868.007 1.229 1.115.53 1.631l-5.396 3.985 2.023 6.396c.262.828-.68 1.513-1.388 1.008l-5.458-3.901-5.458 3.901c-.706.506-1.649-.18-1.388-1.008l2.023-6.396-5.396-3.985c-.698-.516-.339-1.625.53-1.631l6.708-.052 2.122-6.364c.278-.824 1.444-.824 1.718 0z"/><path d="m61.058 45.953 2.122 6.364 6.708.052c.868.007 1.229 1.115.53 1.631l-5.396 3.985 2.023 6.396c.262.828-.68 1.513-1.388 1.008l-5.458-3.901-5.458 3.901c-.706.506-1.649-.18-1.388-1.008l2.023-6.396-5.396-3.985c-.698-.516-.339-1.624.53-1.631l6.708-.052 2.122-6.364c.278-.824 1.444-.824 1.718 0z"/><path d="m61.058 104.832 2.122 6.364 6.708.052c.868.007 1.229 1.115.53 1.631l-5.396 3.985 2.023 6.396c.262.828-.68 1.513-1.388 1.008l-5.458-3.901-5.458 3.901c-.706.506-1.649-.18-1.388-1.008l2.023-6.396-5.396-3.985c-.698-.516-.339-1.624.53-1.631l6.708-.052 2.122-6.364c.278-.824 1.444-.824 1.718 0z"/><path d="m61.058 160.771 2.122 6.364 6.708.052c.868.007 1.229 1.115.53 1.631l-5.396 3.985 2.023 6.396c.262.828-.68 1.513-1.388 1.008l-5.458-3.901-5.458 3.901c-.706.506-1.649-.18-1.388-1.008l2.023-6.396-5.396-3.985c-.698-.516-.339-1.624.53-1.631l6.708-.052 2.122-6.364c.278-.823 1.444-.823 1.718 0z"/><path d="m61.058 211.007 2.122 6.364 6.708.052c.868.007 1.229 1.115.53 1.631l-5.396 3.985 2.023 6.396c.262.828-.68 1.513-1.388 1.008l-5.458-3.901-5.458 3.901c-.706.506-1.649-.18-1.388-1.008l2.023-6.396-5.396-3.985c-.698-.516-.339-1.624.53-1.631l6.708-.052 2.122-6.364c.278-.825 1.444-.825 1.718 0z"/><path d="m86.898 20.814 2.122 6.364 6.708.052c.868.007 1.229 1.115.53 1.631l-5.396 3.985 2.023 6.396c.262.828-.68 1.513-1.388 1.008l-5.458-3.901-5.458 3.901c-.706.506-1.649-.18-1.388-1.008l2.023-6.396-5.396-3.985c-.698-.516-.339-1.624.53-1.631l6.708-.052 2.122-6.364c.278-.824 1.443-.824 1.718 0z"/><path d="m86.898 73.902 2.122 6.364 6.708.052c.868.007 1.229 1.115.53 1.631l-5.396 3.985 2.023 6.396c.262.828-.68 1.513-1.388 1.008l-5.458-3.901-5.458 3.901c-.706.506-1.649-.18-1.388-1.008l2.023-6.396-5.396-3.985c-.698-.516-.339-1.624.53-1.631l6.708-.052 2.122-6.364c.278-.825 1.443-.825 1.718 0z"/><path d="m86.898 132.78 2.122 6.364 6.708.052c.868.007 1.229 1.115.53 1.632l-5.396 3.985 2.023 6.396c.262.828-.68 1.513-1.388 1.008l-5.458-3.901-5.458 3.901c-.706.506-1.649-.18-1.388-1.008l2.023-6.396-5.396-3.985c-.698-.516-.339-1.625.53-1.632l6.708-.052 2.122-6.364c.278-.824 1.443-.824 1.718 0z"/><path d="m86.898 186.876 2.122 6.364 6.708.052c.868.007 1.229 1.115.53 1.631l-5.396 3.985 2.023 6.396c.262.828-.68 1.513-1.388 1.008l-5.456-3.902-5.458 3.901c-.706.506-1.649-.18-1.388-1.008l2.023-6.396-5.396-3.985c-.698-.516-.339-1.624.53-1.631l6.708-.052 2.122-6.364c.276-.823 1.441-.823 1.716.001z"/><path d="m86.898 236.102 2.122 6.364 6.708.052c.868.007 1.229 1.115.53 1.631l-5.396 3.985 2.023 6.396c.262.828-.68 1.513-1.388 1.008l-5.458-3.901-5.458 3.901c-.706.506-1.649-.18-1.388-1.008l2.023-6.396-5.396-3.985c-.698-.516-.339-1.625.53-1.631l6.708-.052 2.122-6.364c.278-.824 1.443-.824 1.718 0z"/><path d="m112.737 45.953 2.122 6.364 6.708.052c.868.007 1.229 1.115.53 1.631l-5.396 3.985 2.023 6.396c.262.828-.68 1.513-1.388 1.008l-5.458-3.901-5.458 3.901c-.706.506-1.649-.18-1.388-1.008l2.023-6.396-5.396-3.985c-.698-.516-.339-1.624.53-1.631l6.711-.052 2.122-6.364c.275-.824 1.44-.824 1.715 0z"/><path d="m112.737 104.832 2.122 6.364 6.708.052c.868.007 1.229 1.115.53 1.631l-5.396 3.985 2.023 6.396c.262.828-.68 1.513-1.388 1.008l-5.458-3.901-5.458 3.901c-.706.506-1.649-.18-1.388-1.008l2.023-6.396-5.396-3.985c-.698-.516-.339-1.624.53-1.631l6.708-.052 2.122-6.364c.278-.824 1.443-.824 1.718 0z"/><path d="m112.737 160.771 2.122 6.364 6.708.052c.868.007 1.229 1.115.53 1.631l-5.396 3.985 2.023 6.396c.262.828-.68 1.513-1.388 1.008l-5.458-3.901-5.458 3.901c-.706.506-1.649-.18-1.388-1.008l2.023-6.396-5.396-3.985c-.698-.516-.339-1.624.53-1.631l6.708-.052 2.122-6.364c.278-.823 1.443-.823 1.718 0z"/><path d="m112.737 211.007 2.122 6.364 6.708.052c.868.007 1.229 1.115.53 1.631l-5.396 3.985 2.023 6.396c.262.828-.68 1.513-1.388 1.008l-5.458-3.901-5.458 3.901c-.706.506-1.649-.18-1.388-1.008l2.023-6.396-5.396-3.985c-.698-.516-.339-1.624.53-1.631l6.708-.052 2.122-6.364c.278-.825 1.443-.825 1.718 0z"/><path d="m138.576 20.814 2.122 6.364 6.708.052c.868.007 1.229 1.115.53 1.631l-5.396 3.985 2.023 6.396c.262.828-.68 1.513-1.388 1.008l-5.458-3.901-5.458 3.901c-.706.506-1.649-.18-1.388-1.008l2.023-6.396-5.396-3.985c-.698-.516-.339-1.624.53-1.631l6.708-.052 2.122-6.364c.278-.824 1.443-.824 1.718 0z"/><path d="m138.576 73.902 2.122 6.364 6.708.052c.868.007 1.229 1.115.53 1.631l-5.396 3.985 2.023 6.396c.262.828-.68 1.513-1.388 1.008l-5.458-3.901-5.458 3.901c-.706.506-1.649-.18-1.388-1.008l2.023-6.396-5.396-3.985c-.698-.516-.339-1.624.53-1.631l6.708-.052 2.122-6.364c.278-.825 1.443-.825 1.718 0z"/><path d="m138.576 132.78 2.122 6.364 6.708.052c.868.007 1.229 1.115.53 1.632l-5.396 3.985 2.023 6.396c.262.828-.68 1.513-1.388 1.008l-5.458-3.901-5.458 3.901c-.706.506-1.649-.18-1.388-1.008l2.023-6.396-5.396-3.985c-.698-.516-.339-1.625.53-1.632l6.708-.052 2.122-6.364c.278-.824 1.443-.824 1.718 0z"/><path d="m138.576 186.876 2.122 6.364 6.708.052c.868.007 1.229 1.115.53 1.631l-5.396 3.985 2.023 6.396c.262.828-.68 1.513-1.388 1.008l-5.458-3.901-5.458 3.901c-.706.506-1.649-.18-1.388-1.008l2.023-6.396-5.396-3.985c-.698-.516-.339-1.624.53-1.631l6.708-.052 2.122-6.364c.278-.824 1.443-.824 1.718 0z"/><path d="m138.576 236.102 2.122 6.364 6.708.052c.868.007 1.229 1.115.53 1.631l-5.396 3.985 2.023 6.396c.262.828-.68 1.513-1.388 1.008l-5.458-3.901-5.458 3.901c-.706.506-1.649-.18-1.388-1.008l2.023-6.396-5.396-3.985c-.698-.516-.339-1.625.53-1.631l6.708-.052 2.122-6.364c.278-.824 1.443-.824 1.718 0z"/><path d="m164.415 45.953 2.122 6.364 6.708.052c.868.007 1.229 1.115.53 1.631l-5.396 3.985 2.023 6.396c.262.828-.68 1.513-1.388 1.008l-5.458-3.901-5.458 3.901c-.706.506-1.649-.18-1.388-1.008l2.023-6.396-5.396-3.985c-.698-.516-.339-1.624.529-1.631l6.708-.052 2.122-6.364c.279-.824 1.444-.824 1.719 0z"/><path d="m164.415 104.832 2.122 6.364 6.708.052c.868.007 1.229 1.115.53 1.631l-5.396 3.985 2.023 6.396c.262.828-.68 1.513-1.388 1.008l-5.458-3.901-5.458 3.901c-.706.506-1.649-.18-1.388-1.008l2.023-6.396-5.396-3.985c-.698-.516-.339-1.624.529-1.631l6.708-.052 2.122-6.364c.279-.824 1.444-.824 1.719 0z"/><path d="m164.415 160.771 2.122 6.364 6.708.052c.868.007 1.229 1.115.53 1.631l-5.396 3.985 2.023 6.396c.262.828-.68 1.513-1.388 1.008l-5.458-3.901-5.458 3.901c-.706.506-1.649-.18-1.388-1.008l2.023-6.396-5.396-3.985c-.698-.516-.339-1.624.529-1.631l6.708-.052 2.122-6.364c.279-.823 1.444-.823 1.719 0z"/><path d="m164.415 211.007 2.122 6.364 6.708.052c.868.007 1.229 1.115.53 1.631l-5.396 3.985 2.023 6.396c.262.828-.68 1.513-1.388 1.008l-5.458-3.901-5.458 3.901c-.706.506-1.649-.18-1.388-1.008l2.023-6.396-5.396-3.985c-.698-.516-.339-1.624.529-1.631l6.708-.052 2.122-6.364c.279-.825 1.444-.825 1.719 0z"/><path d="m190.254 20.814 2.122 6.364 6.708.052c.868.007 1.229 1.115.53 1.631l-5.396 3.985 2.023 6.396c.262.828-.68 1.513-1.388 1.008l-5.458-3.901-5.458 3.901c-.706.506-1.649-.18-1.388-1.008l2.023-6.396-5.396-3.985c-.698-.516-.339-1.624.53-1.631l6.708-.052 2.122-6.364c.278-.824 1.443-.824 1.718 0z"/><path d="m190.254 73.902 2.122 6.364 6.708.052c.868.007 1.229 1.115.53 1.631l-5.396 3.985 2.023 6.396c.262.828-.68 1.513-1.388 1.008l-5.458-3.901-5.458 3.901c-.706.506-1.649-.18-1.388-1.008l2.023-6.396-5.396-3.985c-.698-.516-.339-1.624.53-1.631l6.708-.052 2.122-6.364c.278-.825 1.443-.825 1.718 0z"/><path d="m190.254 132.78 2.122 6.364 6.708.052c.868.007 1.229 1.115.53 1.632l-5.396 3.985 2.023 6.396c.262.828-.68 1.513-1.388 1.008l-5.458-3.901-5.458 3.901c-.706.506-1.649-.18-1.388-1.008l2.023-6.396-5.396-3.985c-.698-.516-.339-1.625.53-1.632l6.708-.052 2.122-6.364c.278-.824 1.443-.824 1.718 0z"/><path d="m190.254 186.876 2.122 6.364 6.708.052c.868.007 1.229 1.115.53 1.631l-5.396 3.985 2.023 6.396c.262.828-.68 1.513-1.388 1.008l-5.458-3.901-5.458 3.901c-.706.506-1.649-.18-1.388-1.008l2.023-6.396-5.396-3.985c-.698-.516-.339-1.624.53-1.631l6.708-.052 2.122-6.364c.278-.824 1.443-.824 1.718 0z"/><path d="m190.254 236.102 2.122 6.364 6.708.052c.868.007 1.229 1.115.53 1.631l-5.396 3.985 2.023 6.396c.262.828-.68 1.513-1.388 1.008l-5.458-3.901-5.458 3.901c-.706.506-1.649-.18-1.388-1.008l2.023-6.396-5.396-3.985c-.698-.516-.339-1.625.53-1.631l6.708-.052 2.122-6.364c.278-.824 1.443-.824 1.718 0z"/><path d="m216.094 45.953 2.122 6.364 6.708.052c.868.007 1.229 1.115.53 1.631l-5.396 3.985 2.023 6.396c.262.828-.68 1.513-1.388 1.008l-5.458-3.901-5.458 3.901c-.706.506-1.649-.18-1.388-1.008l2.023-6.396-5.396-3.985c-.698-.516-.339-1.624.53-1.631l6.708-.052 2.122-6.364c.277-.824 1.443-.824 1.718 0z"/><path d="m216.094 104.832 2.122 6.364 6.708.052c.868.007 1.229 1.115.53 1.631l-5.396 3.985 2.023 6.396c.262.828-.68 1.513-1.388 1.008l-5.458-3.901-5.458 3.901c-.706.506-1.649-.18-1.388-1.008l2.023-6.396-5.396-3.985c-.698-.516-.339-1.624.53-1.631l6.708-.052 2.122-6.364c.277-.824 1.443-.824 1.718 0z"/><path d="m216.094 160.771 2.122 6.364 6.708.052c.868.007 1.229 1.115.53 1.631l-5.396 3.985 2.023 6.396c.262.828-.68 1.513-1.388 1.008l-5.458-3.901-5.458 3.901c-.706.506-1.649-.18-1.388-1.008l2.023-6.396-5.396-3.985c-.698-.516-.339-1.624.53-1.631l6.708-.052 2.122-6.364c.277-.823 1.443-.823 1.718 0z"/><path d="m216.094 211.007 2.122 6.364 6.708.052c.868.007 1.229 1.115.53 1.631l-5.396 3.985 2.023 6.396c.262.828-.68 1.513-1.388 1.008l-5.458-3.901-5.458 3.901c-.706.506-1.649-.18-1.388-1.008l2.023-6.396-5.396-3.985c-.698-.516-.339-1.624.53-1.631l6.708-.052 2.122-6.364c.277-.825 1.443-.825 1.718 0z"/><path d="m241.933 20.814 2.122 6.364 6.708.052c.868.007 1.229 1.115.53 1.631l-5.396 3.985 2.023 6.396c.262.828-.68 1.513-1.388 1.008l-5.458-3.901-5.458 3.901c-.706.506-1.649-.18-1.388-1.008l2.023-6.396-5.396-3.985c-.698-.516-.339-1.624.53-1.631l6.708-.052 2.122-6.364c.277-.824 1.443-.824 1.718 0z"/><path d="m241.933 73.902 2.122 6.364 6.708.052c.868.007 1.229 1.115.53 1.631l-5.396 3.985 2.023 6.396c.262.828-.68 1.513-1.388 1.008l-5.458-3.901-5.458 3.901c-.706.506-1.649-.18-1.388-1.008l2.023-6.396-5.396-3.985c-.698-.516-.339-1.624.53-1.631l6.708-.052 2.122-6.364c.277-.825 1.443-.825 1.718 0z"/><path d="m241.933 132.78 2.122 6.364 6.708.052c.868.007 1.229 1.115.53 1.632l-5.396 3.985 2.023 6.396c.262.828-.68 1.513-1.388 1.008l-5.458-3.901-5.458 3.901c-.706.506-1.649-.18-1.388-1.008l2.023-6.396-5.396-3.985c-.698-.516-.339-1.625.53-1.632l6.708-.052 2.122-6.364c.277-.824 1.443-.824 1.718 0z"/><path d="m241.933 186.876 2.122 6.364 6.708.052c.868.007 1.229 1.115.53 1.631l-5.396 3.985 2.023 6.396c.262.828-.68 1.513-1.388 1.008l-5.458-3.901-5.458 3.901c-.706.506-1.649-.18-1.388-1.008l2.023-6.396-5.396-3.985c-.698-.516-.339-1.624.53-1.631l6.708-.052 2.122-6.364c.277-.824 1.443-.824 1.718 0z"/><path d="m241.933 236.102 2.122 6.364 6.708.052c.868.007 1.229 1.115.53 1.631l-5.396 3.985 2.023 6.396c.262.828-.68 1.513-1.388 1.008l-5.458-3.901-5.458 3.901c-.706.506-1.649-.18-1.388-1.008l2.023-6.396-5.396-3.985c-.698-.516-.339-1.625.53-1.631l6.708-.052 2.122-6.364c.277-.824 1.443-.824 1.718 0z"/></g></svg>