<?xml version="1.0" encoding="utf-8"?>
<!-- Generator: Adobe Illustrator 27.0.0, SVG Export Plug-In . SVG Version: 6.00 Build 0)  -->
<svg version="1.1" xmlns="http://www.w3.org/2000/svg" xmlns:xlink="http://www.w3.org/1999/xlink" x="0px" y="0px"
	 viewBox="0 0 1000 500" style="enable-background:new 0 0 1000 500;" xml:space="preserve">
<style type="text/css">
	.st0{fill:#7296C7;}
	.st1{fill:#5D86B7;}
	.st2{fill:#A4DFFE;}
	.st3{fill:#FFFFFF;}
	.st4{fill:#98B2DB;}
	.st5{fill:#AEC2E3;}
	.st6{opacity:0.1;fill:#502960;}
	.st7{fill:#502960;}
	.st8{opacity:0.3;fill:#502960;}
	.st9{fill:#FAD0A5;}
	.st10{fill:#F0AC8B;}
	.st11{fill:#F95693;}
	.st12{fill:#FA898E;}
	.st13{fill:#451D3A;}
	.st14{fill:#AE5153;}
	.st15{fill:#954952;}
	.st16{fill:#C151D2;}
	.st17{opacity:0.3;fill:#CD2960;}
</style>
<g id="BACKGROUND">
	<rect x="0" class="st0" width="1000" height="500"/>
</g>
<g id="OBJECTS">
	<g>
		<g>
			<rect x="28.8" y="36.1" class="st1" width="458.4" height="273.8"/>
			<rect x="28.8" y="29.4" class="st2" width="458.4" height="273.8"/>
			<polygon class="st3" points="199,29.4 28.8,198.2 28.8,143.8 137.8,29.4 			"/>
			<polygon class="st3" points="303.7,29.4 28.8,296.8 28.8,258.3 251.2,29.4 			"/>
			<polygon class="st3" points="363.2,29.4 104.6,303.3 85.9,303.3 346.1,29.4 			"/>
			<polygon class="st3" points="487.3,29.4 487.3,72.5 299.2,303.3 231.9,303.3 465,29.4 			"/>
		</g>
		<g>
			<rect x="512.1" y="36.1" class="st1" width="458.4" height="273.8"/>
			<rect x="512.1" y="29.4" class="st2" width="458.4" height="273.8"/>
			<polygon class="st3" points="682.2,29.4 512.1,198.2 512.1,143.8 621.1,29.4 			"/>
			<polygon class="st3" points="786.9,29.4 512.1,296.8 512.1,258.3 734.4,29.4 			"/>
			<polygon class="st3" points="846.5,29.4 587.9,303.3 569.1,303.3 829.4,29.4 			"/>
			<polygon class="st3" points="970.6,29.4 970.6,72.5 782.4,303.3 715.1,303.3 948.2,29.4 			"/>
		</g>
		<rect x="0" y="351.2" class="st4" width="1000" height="148.8"/>
		<g>
			<polygon class="st5" points="46.4,350.5 45.4,351.2 0,382 0,363.2 18.7,351.2 19.8,350.5 			"/>
			<polygon class="st5" points="98.3,350.5 97.4,351.2 0,425.8 0,402 70.7,351.2 71.7,350.5 			"/>
			<polygon class="st5" points="150.2,350.5 149.4,351.2 0,482.5 0,451.5 122.7,351.2 123.6,350.5 			"/>
			<polygon class="st5" points="202,350.5 201.4,351.2 57.2,500 17.7,500 174.7,351.2 175.4,350.5 			"/>
			<polygon class="st5" points="253.9,350.5 253.4,351.2 134.3,500 94.8,500 226.7,351.2 227.3,350.5 			"/>
			<polygon class="st5" points="305.8,350.5 305.4,351.2 211.4,500 171.9,500 278.7,351.2 279.2,350.5 			"/>
			<polygon class="st5" points="357.7,350.5 357.3,351.2 288.5,500 249,500 330.7,351.2 331.1,350.5 			"/>
			<polygon class="st5" points="409.5,350.5 409.3,351.2 365.6,500 326,500 382.7,351.2 382.9,350.5 			"/>
			<polygon class="st5" points="461.4,350.5 461.3,351.2 442.7,500 403.1,500 434.7,351.2 434.8,350.5 			"/>
			<polygon class="st5" points="519.8,500 480.2,500 486.7,351.2 486.7,350.5 513.3,350.5 513.3,351.2 			"/>
			<polygon class="st5" points="596.9,500 557.3,500 538.7,351.2 538.6,350.5 565.2,350.5 565.3,351.2 			"/>
			<polygon class="st5" points="673.9,500 634.4,500 590.7,351.2 590.4,350.5 617.1,350.5 617.3,351.2 			"/>
			<polygon class="st5" points="751,500 711.5,500 642.6,351.2 642.3,350.5 668.9,350.5 669.3,351.2 			"/>
			<polygon class="st5" points="828.1,500 788.6,500 694.6,351.2 694.2,350.5 720.8,350.5 721.3,351.2 			"/>
			<polygon class="st5" points="905.2,500 865.7,500 746.6,351.2 746.1,350.5 772.7,350.5 773.3,351.2 			"/>
			<polygon class="st5" points="982.3,500 942.8,500 798.6,351.2 798,350.5 824.6,350.5 825.3,351.2 			"/>
			<polygon class="st5" points="1000,451.5 1000,482.5 850.6,351.2 849.8,350.5 876.4,350.5 877.3,351.2 			"/>
			<polygon class="st5" points="1000,402 1000,425.8 902.6,351.2 901.7,350.5 928.3,350.5 929.3,351.2 			"/>
			<polygon class="st5" points="1000,363.2 1000,382 954.6,351.2 953.6,350.5 980.2,350.5 981.3,351.2 			"/>
		</g>
		<polygon class="st1" points="924.1,474.5 75.9,474.5 169.3,379.6 830.7,379.6 		"/>
		<rect y="337.9" class="st1" width="1000" height="13.3"/>
		<ellipse class="st6" cx="158.1" cy="393.5" rx="114.8" ry="21.3"/>
		<ellipse class="st6" cx="835.2" cy="394.5" rx="114.8" ry="21.3"/>
		<ellipse class="st6" cx="362.3" cy="450.2" rx="128.7" ry="24.4"/>
		<ellipse class="st6" cx="631" cy="450.2" rx="128.7" ry="24.4"/>
	</g>
	<g>
		<g>
			<g>
				<path class="st7" d="M724.9,406.3l-5.9,1.5l-6.1,1.5c0,0-10.4-17.4-13.9-33.3c-3.5-15.9-10.4-21.6-15.1-35
					c-4.7-13.4-29.3-51.9-29.3-51.9s-35.8,47.2-40.5,55.1c-4.7,8-48.9,60.6-48.9,60.6s-5.1-1.4-11.9-4.5c-1.4-0.6-2.8-1.4-4.3-2.2
					c7.2-18.9,34.8-58.6,37.8-65.1c3-6.5,20.9-52.4,23.1-62.3c2.2-9.9,7.5-23.5,7.5-23.5c1.7,0.6,3.4,1.2,5.1,1.7
					c41,13.1,52.9-5.1,57.9-11c5.5,15.4,23.1,64.8,26.6,86.4c3.5,21.6,7.9,29.1,10.9,39C721,373.3,724.9,406.3,724.9,406.3z"/>
				<path class="st8" d="M719.1,407.8l-6.1,1.5c0,0-10.4-17.4-13.9-33.3c-3.5-15.9-10.4-21.6-15.1-35c-4.7-13.4-29.3-51.9-29.3-51.9
					s9.9-10.2,16.5-19.5c4.4,18.6,19.9,54.1,26.2,70c6.2,16,0.9,17.3,8,29.3C710.2,377.2,716,396.7,719.1,407.8z"/>
				<path class="st8" d="M600.2,333.4c-7.5,11.5,1.3,11.1,1.3,11.1l-48.2,55.8c-1.4-0.6-2.8-1.4-4.3-2.2
					c7.2-18.9,34.8-58.6,37.8-65.1c3-6.5,20.9-52.4,23.1-62.3c2.2-9.9,7.5-23.5,7.5-23.5c1.7,0.6,3.4,1.2,5.1,1.7
					c-1.5,5.3-4.9,18.8-5.9,35.3C615.3,305.5,607.7,321.9,600.2,333.4z"/>
				<path class="st9" d="M549.1,398.1l-9.9,20.4l8.7,4.2l15.9-18.1C563.7,404.6,556.8,400.1,549.1,398.1z"/>
				<path class="st3" d="M553.6,427.4c0,0.1,0,0.1,0,0.2c-0.4,3.7-3.9,9.5-7.6,12.9c-3.7,3.5-3.3,7-6.8,11c-3.5,4-15.9,5.5-18.6,2.7
					c-1.2-1.2-1.1-3.6-0.3-6.3c0.9-3.2,2.8-6.8,4.3-9.1c2.7-4.2,11.4-15.9,11.4-15.9s0.5-2,0.5-7.7c7.7-12.7,12.2,2.2,12.2,2.2
					l4.7-0.5C553.3,417,553.8,423.7,553.6,427.4z"/>
				<polygon class="st9" points="713,409.3 715.7,421 726.7,417.3 724.9,406.3 				"/>
				<path class="st3" d="M744.1,459.2c0,0-8.7,2.2-15.6-2c-7-4.2-6-11.4-10.7-14.9c-4.1-3.1-5.8-5.2-6.1-9.7c-0.1-0.6-0.1-1.3-0.1-2
					c0-6,0-14.2,2.7-14.9c2.7,2.2,2.7,2.2,2.7,2.2s-1.2-6.5,6-7.2c7.2-0.8,8.9,3.5,8.2,7.7c1.7,5-0.2,10.7,4.2,16.4
					c4.5,5.7,8.4,9.4,8.9,15.2c0,0.2,0,0.4,0,0.6C744.8,456,744.1,459.2,744.1,459.2z"/>
				<path class="st9" d="M667.3,53.6c-0.5,1.5-2.2,5.5-4,9.7c-1.7,4.2-5.5,5.2-7.2,7.7c-1.7,2.5-1.2,25.6-1.2,39
					c0,13.4-0.8,12.9-2.2,29.8c-0.9,10-1.3,17.7-1.5,22.5c-0.1,3.3-0.1,5.2,0,5.5l-18.4-0.5c0,0-3.7-10.7-2.5-27.6
					c1.2-16.9,7.9-35.5,11.9-45.9c0.2-0.6,0.5-1.3,0.7-2c3.8-11.5,8-35.4,8.5-37.5c0.5-2,2.5-3,2.5-3s0.8-2.5,2.7-2.5
					c1-1.2,4-3.7,4.2-2.5c0.2,1.2-3,8.9-3,8.9l2.2,3.2c0,0,2.5-4.5,4-5.5c0.7-0.5,1.7-0.7,2.3-0.7C667.1,52.5,667.6,52.9,667.3,53.6
					z"/>
				<path class="st10" d="M666.4,52.5c-3.3,2.2-6,9-6,9s-2-1.7-2.3-2.5c-0.3-0.8-0.2-3.5-0.2-3.5l2.2,3.2c0,0,2.5-4.5,4-5.5
					C664.8,52.6,665.7,52.4,666.4,52.5z"/>
				<path class="st10" d="M651.2,167.9l-18.4-0.5c0,0-3.7-10.7-2.5-27.6c1.2-16.9,7.9-35.5,11.9-45.9c0.2-0.6,0.5-1.3,0.7-2
					c0.3,2.9,0.9,5.8,1.7,8.6c1.9,7.1,4.7,13.9,5.6,21.2c1.7,13.4-3.1,27.4,0.9,40.3c0,0.1,0.1,0.3,0.1,0.4
					C651,165.7,651.1,167.6,651.2,167.9z"/>
				<path class="st7" d="M645.9,95.7c-4.2-2.1-9.4-0.8-13.7,1c-4.4,1.8-8.8,4.2-13.5,4c-4.1-0.1-7.9-2.2-11.9-3.4
					c-11.3-3.5-24.5,0.2-32.4,9c-4,4.5-6.6,10.1-10.9,14.2c-8.1,7.8-20.7,9-29.3,16.2c-5.8,4.8-9.4,12.2-8.9,19.7
					c0.5,7.5,5.2,14.7,12.1,17.5c11.7,4.7,26.1-3,37.1,3.2c3.6,2,6.3,5.3,9.9,7.2c5.5,2.9,12.4,2.2,17.9-0.5
					c5.6-2.7,10.1-7.3,14.1-12s7.7-9.8,12.2-14.1c0.7-0.6,1.4-1.3,1.8-2.1c0.5-1,0.4-2.3,0.4-3.4c-0.3-9.5,3-19,8.9-26.5
					c4.5-5.7,9.4-9.9,11.4-17.3C652.2,103.6,650.5,98.1,645.9,95.7z"/>
				<path class="st8" d="M596.1,176.5c0.3-5-2.4-10.2-6.8-12.6c-3.7-2.1-8.2-2.3-12.4-2.7c-4.3-0.4-8.8-1.1-12-3.8
					c-3.2-2.8-4.4-8.3-1.3-11.3c2.2-2.1,5.7-2.1,8.7-2.4c8.3-0.7,17-5,19.5-12.9c1.1-3.4,0.9-7.3,3.2-10.1
					c3.6-4.5,10.7-3.1,16.5-2.4c8.2,1,16.7-0.3,24.2-3.8c-0.6,6.2,0.4,12.6-1.7,18.4c-0.9,2.5-2.3,4.7-3.7,7
					c-3.3,5.2-6.6,10.4-9.9,15.7c-2.1,3.4-4.3,6.8-7.3,9.4s-7.1,4.4-11,3.7"/>
				<path class="st9" d="M680.5,237.9c0,0-4.7,13.4-22.4,17.6c-9.8,2.3-23.7-1.7-32.4-4.9c-4.9-1.8-8.2-3.4-8.2-3.4s4.2-18.5,2.4-26
					c-1.8-7.6-18.8-27.5-20-26c-1.2,1.5-12.4,32.6-12.4,32.6l2.4,42c0,0,0.9,2.5,2.1,5.2c1.3,2.8,2.9,6,4.3,6.9
					c2.7,1.8,11.5,6.1,12.4,6.7c0.9,0.6,0.3,3-0.9,3.6c-1.2,0.6-7.3-1.8-7.3-1.8s-0.5,7.2-1.7,8.8c-0.5,0.6-2.7,1.2-5.1,0.4
					c-1.6,0.5-4.1,0-5.6-1c-2.4-0.1-3.6-1.2-4-1.8c-1.2-1.8-2.7-18.8-3.9-24.5c-1.2-5.8-13.8-32.8-10.6-48
					c2.4-11.2,13.8-44.4,16.6-49c5-8.3,15-18.1,15-18.1c3.9-4.2,13.8-8,14.7-21l13.7,11.8l-1.9,6.2l11.3,1.8c0,0,14.2,12.4,17,15.4
					c2.7,3,8.2,23.8,9.6,27.6c0,0.1,0.1,0.2,0.1,0.2c0.4,1,2.3,5.8,4.5,11.8C674.5,222.3,680.5,237.9,680.5,237.9z"/>
				<path class="st10" d="M644.8,179.2c0,0,7.5,2.9,8,15.5C650,193.9,644.8,179.2,644.8,179.2z"/>
				<path class="st10" d="M670.1,210.8c-2.3,0-4.7-0.1-7-0.1c-1,0-2.1,0-3.1,0.5c-0.8,0.4-1.3,1.1-1.8,1.8
					c-7.1,9.1-16.8,16.3-27.6,20.3c-1,0.4-2.1,0.8-2.8,1.6c-0.5,0.6-0.8,1.4-1,2.2c-1.2,4.4-1.6,9-1.2,13.5
					c-4.9-1.8-8.2-3.4-8.2-3.4s4.2-18.5,2.4-26c-1.8-7.6-18.8-27.5-20-26c-1.2,1.5-12.4,32.6-12.4,32.6l2.4,42c0,0,0.9,2.5,2.1,5.2
					c-4.1-5.4-5.6-14.8-7-20.4c-1.5-6.1-3-12.3-4.5-18.4c-0.5-2.2-1.1-4.5-0.6-6.7c0.3-1.7,1.2-3.2,2-4.7
					c5.6-10.3,10.5-21,14.5-32.1c0.7-1.8,1.5-3.9,3.3-4.6c0.7-0.3,1.5-0.4,2.3-0.4c8.2-0.4,16.5-0.4,24.7,0.1
					c1.2,0.1,2.5,0.2,3.5,0.7c1,0.5,1.8,1.4,2.4,2.3c2.5,3.4,4.1,7.6,7.6,10c3.8,2.7,9,2.4,13.6,1.3c3.9-1,7.7-2.6,11.7-3.3
					c0,0.1,0.1,0.2,0.1,0.2C666,200.1,667.9,204.9,670.1,210.8z"/>
				<path class="st11" d="M669.5,208.6c0,0-1.4-0.6-12.9-0.8c-4.5,13.1-29.1,24.1-38,24.1c2.2-15.6-7.9-22.3-11.7-31.2
					c7.1-3.1,9.1-9.6,8.6-16.1c-0.6-6.9-3.9-13.8-6.8-17c-5.7-6.2-13.7-4.2-13.7-4.2s0.7-2,3-2.5c13.9-2,25.6,15.9,34,19.1
					c8.5,3.2,18.5,6.6,18.5,6.6s1.1-5.1-0.4-14.1c-1.5-8.9-9-14.1-19.6-18.2c9.1-2.1,30,15.4,31.5,20.4c1.5,5,3,19.7,3,19.7l3.1,9.8
					L669.5,208.6z"/>
				<path class="st9" d="M618.2,130.6c0,0-3.3-8.6-6.7-5.7c-3.5,3-2.5,16.6,4,13.3c5.2,5,14,12,18.7,12.8c5.7,1,7.4-10.7,7.8-12.2
					c0,0,3.5,0.1,3.8-0.7c0.7-1.9-5.4-5.3-3.6-12.3c1.7-6.8-1.6-14.4-7-12.9c-3.7,9.4-13.2,11.3-13.2,11.3S622.7,130.8,618.2,130.6z
					"/>
			</g>
		</g>
		<path class="st12" d="M626.2,135c0.4,1.9,2.2,3.2,4.2,2.8c1.9-0.4,3.2-2.2,2.8-4.2c-0.4-1.9-2.2-3.2-4.2-2.8
			C627.1,131.3,625.8,133.1,626.2,135z"/>
		<path class="st7" d="M633.1,126.8c0,0,5-1.6,7.6-0.1C641.1,123.1,636,123.9,633.1,126.8z"/>
		<path class="st13" d="M639.3,130.8c-0.1,0.9-0.6,1.5-1,1.4c-0.4-0.1-0.7-0.8-0.6-1.7c0.1-0.9,0.6-1.5,1-1.4
			C639.1,129.2,639.4,129.9,639.3,130.8z"/>
		<path class="st3" d="M635,137.8c0,0,1.7,0.6,4.3,2.5C638.7,142.2,635.3,140.9,635,137.8z"/>
		<path class="st10" d="M661.7,247.4c0,0,3.9,0.9,5.4-2.1C664.4,245.7,661.7,247.4,661.7,247.4z"/>
		<path class="st7" d="M553.5,427.6c-0.4,3.7-3.9,9.5-7.6,12.9c-3.7,3.5-3.3,7-6.8,11c-3.5,4-15.9,5.5-18.6,2.7
			c-1.2-1.2-1.1-3.6-0.3-6.3c1.2-1.1,2.6-2.1,4.1-2.7c2.4-0.9,5.4-0.6,6.9,1.4c0.9,1.1,1.5,2.8,2.9,2.8c0.6,0,1.2-0.4,1.6-0.8
			c2.2-1.9,3.6-4.6,5.3-7c2.4-3.2,5.4-5.8,8.2-8.6C550.9,431.4,552.4,429.6,553.5,427.6z"/>
		<path class="st7" d="M744.1,459.2c0,0-8.7,2.2-15.6-2c-7-4.2-6-11.4-10.7-14.9c-4.1-3.1-5.8-5.2-6.1-9.7c0.3,0.4,0.7,0.8,1,1.2
			c2.1,1.9,4.9,3,6.9,5c2.1,2.2,2.9,5.1,4,7.9c1.1,2.8,2.7,5.6,5.5,6.7c0.6,0.2,1.3,0.4,2,0.2c0.9-0.2,1.6-0.9,2.3-1.5
			c2.8-2.3,6.7-3,10.2-1.9c0.3,0.1,0.6,0.2,0.9,0.3C744.8,456,744.1,459.2,744.1,459.2z"/>
		<path class="st7" d="M536.1,434.8c-0.1,0-0.2,0-0.3-0.1c-2.6-2.4-6-1.2-6.1-1.1c-0.3,0.1-0.5,0-0.6-0.3c-0.1-0.3,0-0.5,0.3-0.6
			c0.2-0.1,4.1-1.5,7.1,1.3c0.2,0.2,0.2,0.5,0,0.7C536.4,434.8,536.3,434.8,536.1,434.8z"/>
		<path class="st7" d="M539.6,430.6c-0.2,0-0.3-0.1-0.4-0.3c-1.4-2.6-7.3-1.8-7.4-1.7c-0.3,0-0.5-0.1-0.6-0.4c0-0.3,0.1-0.5,0.4-0.6
			c0.3,0,6.7-0.9,8.4,2.3c0.1,0.2,0,0.5-0.2,0.7C539.8,430.6,539.7,430.6,539.6,430.6z"/>
		<path class="st7" d="M543.1,425.2c-0.1,0-0.3-0.1-0.4-0.2c-2.2-2.6-5.4-2-7.1-1.5l-0.1,0c-0.3,0.1-0.5-0.1-0.6-0.4
			c-0.1-0.3,0.1-0.5,0.4-0.6c2-0.7,5.7-1.3,8.3,1.8c0.2,0.2,0.2,0.5-0.1,0.7C543.3,425.2,543.2,425.2,543.1,425.2z"/>
		<path class="st7" d="M731.3,438.6c-0.2,0-0.3-0.1-0.4-0.2c-0.2-0.2-0.1-0.5,0.1-0.7c0.1-0.1,3.3-2.5,6.4-1.1
			c0.3,0.1,0.4,0.4,0.2,0.7c-0.1,0.2-0.4,0.4-0.7,0.2c-2.5-1.2-5.4,0.9-5.4,0.9C731.5,438.6,731.4,438.6,731.3,438.6z"/>
		<path class="st7" d="M727.7,433.9c-0.2,0-0.3-0.1-0.4-0.2c-0.1-0.2-0.1-0.5,0.2-0.7c0.2-0.1,3.7-2.3,6.7-0.5
			c0.2,0.1,0.3,0.4,0.2,0.7c-0.1,0.2-0.4,0.3-0.7,0.2c-2.4-1.4-5.6,0.5-5.6,0.5C727.9,433.9,727.8,433.9,727.7,433.9z"/>
		<path class="st7" d="M725.4,428.6c-0.1,0-0.2,0-0.3-0.1c-0.2-0.2-0.2-0.5,0-0.7c0,0,2.8-3.2,7.9-0.7c0.2,0.1,0.3,0.4,0.2,0.7
			c-0.1,0.2-0.4,0.3-0.7,0.2c-4.4-2.2-6.7,0.4-6.7,0.4C725.7,428.5,725.6,428.6,725.4,428.6z"/>
		<path class="st10" d="M608.7,161.1c0,0,10.9-2.6,18.6,0.2C619.6,157.8,616.6,157.8,608.7,161.1z"/>
		<path class="st10" d="M614.2,135.9c-0.2,0-0.4-0.1-0.5-0.4c-0.1-0.3,0.1-0.5,0.3-0.6c1.3-0.4,1.4-2,1.3-2.9
			c-0.2-2.2-1.3-4-1.8-4.1c-1.2-0.2-1.8,1.4-1.9,1.4c-0.1,0.3-0.4,0.4-0.6,0.3c-0.3-0.1-0.4-0.4-0.3-0.6c0-0.1,0.9-2.3,2.9-2.1
			c1.3,0.1,2.5,2.7,2.7,5c0.2,2.1-0.6,3.6-2,4C614.3,135.9,614.2,135.9,614.2,135.9z"/>
		<path class="st10" d="M613.1,132.5c-0.1,0-0.2,0-0.3-0.1c-0.2-0.2-0.3-0.5-0.1-0.7c1-1.3,2.6-1.6,2.7-1.6c0.3,0,0.5,0.2,0.6,0.4
			c0,0.3-0.2,0.5-0.4,0.6c0,0-1.3,0.2-2,1.2C613.4,132.4,613.2,132.5,613.1,132.5z"/>
		<path class="st8" d="M669.5,208.6c0,0-1.4-0.6-12.9-0.8c-4.5,13.1-29.1,24.1-38,24.1c2.2-15.6-7.9-22.3-11.7-31.2
			c7.1-3.1,9.1-9.6,8.6-16.1c2.3,2.5,4.2,5.3,4.9,8.7c1.3,6.3-2.1,13.3,0.7,19.1c2.5,5.1,9.1,7.1,14.5,5.8c5.5-1.3,10-5.1,13.9-9.2
			c1.2-1.3,2.5-2.7,4.1-3.3c1.2-0.5,2.6-0.6,4-0.7c3.5-0.2,7-0.5,10.5-0.7L669.5,208.6z"/>
	</g>
	<g>
		<path class="st7" d="M891.4,249.7l-10.3,7.2l-3.1-11.3C878,245.6,888.8,246.8,891.4,249.7z"/>
		<g>
			<path class="st11" d="M901.8,308.7c-0.2,10-1.7,31.5-2.7,45.8c-0.6,8.2-1,14-1,14s-4.5,0.4-17.5,0.4c-1.1-18-1.9-47.9-6.4-59.5
				c-5-12.8-12.3-27.6-13.2-29.4v0c-0.1-0.1-0.1-0.2-0.1-0.2s-18.3,22.4-30.9,39.6c-11.7,15.9-42.1,49.2-43.2,52.5
				c-1,2.9-5.3,1.3-12.8-4.1c-1.1-0.8-2.3-1.7-3.5-2.6c11.3-29.8,28.1-46.6,33.5-57.8c5.6-11.5,23.1-56.6,23.1-56.6l50.8-14.4
				l1.8-0.5c0,0,0.1,0.1,0.2,0.3c0.8,1.5,4.5,8.2,8.1,16.7c1.1,2.6,2.3,5.4,3.3,8.3C895.8,274.6,902.1,293,901.8,308.7z"/>
			<path class="st8" d="M899.1,354.5c-0.6,8.2-1,14-1,14s-4.5,0.4-17.5,0.4c-1.1-18-1.9-47.9-6.4-59.5c-5-12.8-12.3-27.6-13.2-29.4
				v0c1.7-3.8,4.2-7.2,7.4-9.9c3.5,19,17.7,34.7,20.8,53.8c0.9,5.8,0.8,11.7,2.4,17.3C893,346,895.8,350.5,899.1,354.5z"/>
			<path class="st8" d="M887.7,252.8c-6.8-0.7-13.6-0.8-20,1.3c-7.5,2.5-13.7,8-20.6,11.9c-6.7,3.8-14.2,6.2-20.3,10.9
				c-8.2,6.3-13.1,16.1-16.4,26c-3.2,9.9-5.1,20.2-8.9,29.9c-5,12.8-13.3,24.3-23.9,33l-3.7,2c-1.1-0.8-2.3-1.7-3.5-2.6
				c11.3-29.8,28.1-46.6,33.5-57.8c5.6-11.5,23.1-56.6,23.1-56.6l50.8-14.4c0.6-0.1,1.3-0.1,1.9-0.2
				C880.4,237.6,884.1,244.4,887.7,252.8z"/>
			<path class="st14" d="M837.3,278.6c-4.6,0.7-6.9-3.8-7.4-1c-1.1,6.1,3.7,11.4,3.7,11.4s0.4,2.8-0.6,2.8c-0.9,0-4.8-2.8-5-3
				l1.5,3.1c0.5,1,0.5,2.1,0.1,3.1c-0.3,0.8-0.7,1.6-1.1,1.5c-0.8-0.2-6.7-9.1-6.7-9.1l0.4,6.5c0,0-1.7,1.3-2.4,0.2
				c-0.7-1.1-2.2-11.4-2.4-15.7c-0.2-4.3-3.2-7.6-5.8-17.1c-2.6-9.5-5.6-23.8-5.8-28.5c-0.1-2.4,0-9.8,0.2-16.2
				c0.1-5.8,0.3-10.9,0.3-10.9l16,5.3l-3.1,19.1c0,0,0.2,6,0.9,13.3c0.8,7.3-1.4,17.5,3.1,21.2c1,0.8,1.9,1.6,2.8,2.4
				c3.1,2.8,5.6,5.3,7.9,6.9c3.1,2.1,6,1.7,6,1.7S840.3,278.2,837.3,278.6z"/>
			<path class="st15" d="M826,267c0,0.3,0,0.6,0,0.8c-4.6-3.7-6.8-9.6-8.2-15.3c-2.4-9.5-3.6-19.3-3.6-29c0-1.8,0-3.6-1.1-5
				c-1.6-2-4.3-1.8-6.9-1.9c0.1-5.8,0.3-10.9,0.3-10.9l16,5.3l-3.1,19.1c0,0,0.2,6,0.9,13.3c0.8,7.3-1.4,17.5,3.1,21.2
				C824.2,265.4,825.1,266.2,826,267z"/>
			<path class="st7" d="M787.3,370.6c0,0-2.3,5.3-4.9,7.5c-0.2,0.2-0.5,0.4-0.8,0.6c-3,2.3-8.5,5.9-10.9,11.9
				c-2.6,6.5-3.1,10.8-14.3,10.6c-11.1-0.1-10.4-5.9-10.5-12c0-0.3,0.9-1.2,2.2-2.4c3.4-2.9,9.4-7.2,8.7-6.5
				c3.2-3.1,8.5-9.7,10.5-14.8c2.1-5.1,3.8-2.2,3.8-2.2L787.3,370.6z"/>
			<path class="st7" d="M920.3,396.3c-2.1,3.2-19.5-1.9-30.7-1.3c-9.7,0.6-12.3-1.2-11.2-5c0.1-0.4,0.2-0.8,0.3-1.3
				c0.9-4,1-10.4-0.5-14c-1.7-4,1.5-8.6,1.5-8.6c8.8,3.8,18.9-0.7,18.9-0.7c3.2,0.3-0.7,7.9,0.1,11.7c1.2,5.2,11.8,8.3,17.8,9.4
				c0.8,0.1,1.5,0.4,2.1,0.7c0,0,0,0,0,0C922.6,389,922.1,393.5,920.3,396.3z"/>
			<path class="st14" d="M873.3,71.2c-0.4,3.1-0.9,8.7-2.7,11.7c-1.7,3-2.2,8.7-2.5,17.9s-3.1,24.7-4.6,31.7c-1.5,6.9-4,28.9-4,28.9
				l-5.3-2.4l-13-6c0,0,9.1-20.7,11.2-25.9c1.3-3.2,2.2-8.3,3.2-13.5c0.7-3.3,1.4-6.6,2.3-9.6c2.4-7.6,1.9-16.1,2-18.1
				s-2.1-6-2.6-7.8c-0.5-1.9-1.6-7.7-1.6-8.8c0-1.1,1.6-1.6,2.2-0.9c0.6,0.7,3,5.9,3,5.9l1.3-4.4c0,0-1.6-6.6-1.9-7.7
				c-0.3-1.1,0.3-1.7,1.3-1.5c1,0.2,3.3,7.1,3.3,7.1s-0.3-6.7-0.1-7.6c0.2-0.9,1.7-1.2,2.1-0.6c0.4,0.6,1.5,7.7,1.5,7.7
				s0.1-4.9,0.5-5.9c0.4-1.1,0.9-0.8,1.8-0.3c0.8,0.5,0.4,7.1,0.4,7.1s0.9-4.2,1.8-4.1C873.9,64.1,874,65.5,873.3,71.2z"/>
			<path class="st15" d="M862.8,75.7c0,0,4.3,1.8,4.8,5.4C868.1,75.2,862.8,75.7,862.8,75.7z"/>
			<path class="st15" d="M863.7,70.4c0,0,5.3-0.4,7.4,1.2C870.1,68.9,863.7,70.4,863.7,70.4z"/>
			<path class="st15" d="M855.9,150.9c-0.3,2.7-0.9,5.4-1.7,8l-13-6c0,0,9.1-20.7,11.2-25.9c1.3-3.2,2.2-8.3,3.2-13.5
				c-0.3,5.1-0.3,10.2-0.1,15.2C856,136.1,856.8,143.6,855.9,150.9z"/>
			<path class="st7" d="M891.4,249.7c0,0-11.8-2.3-23,0.9c-6.2,1.8-11.9,6.6-22,9.9c-14,4.6-24.5-0.3-24.5-0.3
				c-0.5-4.7,1.8-28.7,2-34.6c0.2-6-1.5-11.7-1.5-11.7s-11.7-2.2-18.4-1.2c-0.1-1.8-0.2-3.6-0.1-5.5c0.3-9.4,2.6-19.7,5.1-27.5
				c3-9.4,9.6-12.2,9.6-12.2s14-16.3,24.4-19.6c7.2-2.2,13.7,0.3,17,2c1.5,0.8,2.4,1.5,2.4,1.5s-3,15.9,3.7,28.8
				c1.2,2.3,2.3,5,3.3,8c4.8,14,8.3,33.9,13.6,42.9c1.2,2.1,2.3,4,3.2,5.8C890.2,244.7,891.4,249.7,891.4,249.7z"/>
			<path class="st8" d="M891.4,249.7c0,0-11.8-2.3-23,0.9c-6.2,1.8-11.9,6.6-22,9.9c-14,4.6-24.5-0.3-24.5-0.3
				c-0.5-4.7,1.8-28.7,2-34.6c0.2-6-1.5-11.7-1.5-11.7s-11.7-2.2-18.4-1.2c-0.1-1.8-0.2-3.6-0.1-5.5c4.8,0.5,9.6,0.9,14.5,1.4
				c4,0.4,4.2-4.3,4.8-7.4c0.8-4,1.1-8,1.9-11.9c0-0.1,0.1-0.3,0.2-0.4c0.3-0.1,0.4,0.3,0.4,0.6c0.2,7.5,1.4,14.4,2.9,21.6
				c1.3,5.9,2.1,9.4,7.6,12.3c3.4,1.8,7.1,3,10.9,3.3c3.8,0.3,7-1.1,10.9-0.1c0.5,0.1,1.1,0.4,1.2,0.9c0.6,3.6-18.1,2.3-20,2.1
				c-1.1-0.1-2.4-0.3-3.4,0.4c-1.2,0.8-1.4,2.6-0.9,4c1.4,3.4,7.1,5.5,10.3,6.6c6,2,12.4,1.9,18.7,1.1c7.4-0.9,14.8-2.8,22.1-4.7
				C890.2,244.7,891.4,249.7,891.4,249.7z"/>
			<path class="st14" d="M830.9,173.3c-8.7-3.9-12.2-5.8-12.2-5.8l3.2-18.4c0,0-4.7-5.6-3.8-13c0.8-7.4,5-17.2,18.7-15.1
				c6.8,1.1,11.6,6.5,11,16.4c-0.3,4.3,1,13-0.1,16.7c-0.2,0.8-0.6,1.3-1,1.6c-2.7,1.7-6.6,0.7-6.6,0.7l0.5,5.6c0,0,0.1,0.1,0.2,0.2
				c1.1,1,5.9,5.4,7.2,8.6C849.5,174.5,840.3,177.5,830.9,173.3z"/>
			<path class="st14" d="M846.5,134.3c0,0,4.2,7.7,4.2,9.4c0,1.7-4.5,1.7-4.5,1.7"/>
		</g>
		<path class="st7" d="M771.7,365.3c0,0,1.2-7.7,4.5-7.1c3.2,0.5,10.2,2.1,9.8,5.4c-0.4,3.2-5.9,6.6-5.9,6.6"/>
		<path class="st3" d="M781.6,378.7c-3,2.3-8.5,5.9-10.9,11.9c-2.6,6.5-3.1,10.7-14.2,10.8c-12.9,0.2-11.4-10.9-10.7-12.3
			c0.4-0.8,1.1-1.2,2.4-2.3l-0.2,3.1c0,0,8.6-4.5,12.5,5c5.5,0.4,8.9-7.3,10.9-10.5C772.8,382.1,777.7,379.5,781.6,378.7z"/>
		<path class="st3" d="M920.3,396.3c-2.1,3.2-19.5-1.9-30.7-1.3c-9.7,0.6-12.3-1.2-11.2-5c0.1-0.4,0.2-0.8,0.3-1.3
			c4.3,3.4,10.3,4.2,15.8,4c6.2-0.1,12.6-1.1,18.6,0.5c1-2.7,3-5,5.6-6.2c0,0,0,0,0,0C922.6,389,922.1,393.5,920.3,396.3z"/>
		<path class="st7" d="M893.4,370.5c0,0-2.3-7.3-0.2-8.4c2.1-1.1,7.8-2.5,8.4,1.1c0.5,3.6-3.9,12-3.9,12"/>
		<path class="st7" d="M848.4,125.7c-3.9,4.7-15.9,2.2-15.9,2.2s0.7,1.4,1.2,3c0.2,0.7,0.4,1.5,0.4,2.2c0.1,3.2-0.2,7.7-0.3,7.1
			l-3.1,0.3c0,0-0.2-1.4-0.4-3.2c-0.6-3.9-4.2-4.2-6-1.9s1,7.9,2.9,8c-1.6,5-6,8.8-6,8.8c-6.8-1.4-8.2-12.9-8.1-21.9
			c0-3,0.2-5.6,0.4-7.6c0.9-7.9,8.9-5.2,8.9-5.2s2-5.1,10.2-3.2c8.2,1.9,13.7-1,13.7-1s0.4,1.6-1.9,3.9c3.2,0,6.7-2.8,6.7-2.8
			S852.3,121.1,848.4,125.7z"/>
		<path class="st8" d="M833.8,140.3l-3.1,0.3c0,0-0.2-1.4-0.4-3.2c-0.6-3.9-4.2-4.2-6-1.9s1,7.9,2.9,8c-1.6,5-6,8.8-6,8.8
			c-6.8-1.4-8.2-12.9-8.1-21.9c0.3,1.1,1,2.2,2.1,2.1c0.5-0.1,0.9-0.4,1.2-0.7c1.9-1.9,2.7-5,5.3-6c-0.3,1.1-0.4,2.3-0.2,3.5
			c0.1,0.4,0.2,0.8,0.4,1.1s0.7,0.5,1.1,0.3c0.3-0.2,0.5-0.6,0.6-0.9c0.4-1.1,1.1-2,2.1-2.7c0.5,1.1,0.5,2.5,1.2,3.6
			c0.7,0.9,1.8,1.4,3,1.4c1.1,0,2.2-0.4,3.3-0.9c0.1-0.1,0.3-0.2,0.5-0.2c0.2,0.7,0.4,1.5,0.4,2.2
			C834.2,136.4,833.9,140.9,833.8,140.3z"/>
		<path class="st15" d="M827.5,141.7c-0.2,0-0.4-0.1-0.5-0.3c-0.1-0.3,0.1-0.5,0.3-0.6c0.8-0.3,1-1.4,1-1.8c0.1-1.2-0.3-2.5-0.9-2.8
			c-0.2-0.1-0.5-0.1-0.7-0.1c-0.5,0.2-0.9,0.8-1,1c-0.1,0.2-0.4,0.4-0.7,0.2c-0.2-0.1-0.4-0.4-0.2-0.7c0.1-0.1,0.6-1.2,1.6-1.5
			c0.5-0.2,1-0.1,1.5,0.1c1.1,0.5,1.6,2.4,1.5,3.8c-0.1,1.4-0.7,2.4-1.7,2.7C827.6,141.7,827.5,141.7,827.5,141.7z"/>
		<path class="st15" d="M826.8,138.9c-0.2,0-0.4-0.1-0.5-0.3c-0.1-0.3,0-0.5,0.2-0.7l2-0.9c0.3-0.1,0.5,0,0.7,0.2
			c0.1,0.3,0,0.5-0.2,0.7l-2,0.9C826.9,138.9,826.8,138.9,826.8,138.9z"/>
		<path class="st7" d="M845.5,139c0,0.7-0.4,1.4-1,1.4c-0.5,0-1-0.6-1-1.4c0-0.7,0.4-1.4,1-1.4C845,137.7,845.5,138.3,845.5,139z"/>
		<path class="st7" d="M840.8,136.6c0,0,3.8-1.7,6-1.2c0.5-1.6-1.4-4.5-6.5,0.3"/>
		<path class="st3" d="M843.3,145.2c0,0,1.8,1.7,4.1,1.8C845.9,148.9,844,148.2,843.3,145.2z"/>
		<circle class="st12" cx="838.9" cy="142.9" r="2.6"/>
		<path class="st3" d="M761.3,379.5c-0.1,0-0.3-0.1-0.4-0.2c-0.2-0.2-0.2-0.5,0-0.7c0.2-0.2,5.7-5.2,11.5-2.5
			c0.3,0.1,0.4,0.4,0.2,0.7c-0.1,0.2-0.4,0.4-0.7,0.2c-5.2-2.4-10.3,2.3-10.4,2.4C761.5,379.5,761.4,379.5,761.3,379.5z"/>
		<path class="st3" d="M766.9,382.7C766.9,382.7,766.9,382.7,766.9,382.7c-0.3,0-0.5-0.3-0.5-0.6c0.5-3.8-1.7-9.4-1.7-9.5
			c-0.1-0.3,0-0.5,0.3-0.6c0.3-0.1,0.5,0,0.6,0.3c0.1,0.2,2.3,5.9,1.8,10C767.4,382.5,767.2,382.7,766.9,382.7z"/>
		<path class="st3" d="M903.7,382.5c-0.1,0-0.2,0-0.2-0.1c-4.1-2.1-7-1.3-7-1.2c-0.3,0.1-0.5-0.1-0.6-0.3c-0.1-0.3,0.1-0.5,0.3-0.6
			c0.1,0,3.2-0.9,7.7,1.3c0.2,0.1,0.3,0.4,0.2,0.7C904.1,382.4,903.9,382.5,903.7,382.5z"/>
		<path class="st3" d="M900.4,384.6c-0.3,0-0.5-0.2-0.5-0.5c0-2.5-0.5-5.5-0.5-5.6c0-0.3,0.1-0.5,0.4-0.6c0.3-0.1,0.5,0.1,0.6,0.4
			c0,0.1,0.6,3.2,0.6,5.7C900.9,384.4,900.6,384.6,900.4,384.6z"/>
		<path class="st3" d="M887,381.2c0,1.7-0.8,3.1-1.8,3.1c-1,0-1.8-1.4-1.8-3.1c0-1.7,0.8-3.1,1.8-3.1C886.2,378,887,379.4,887,381.2
			z"/>
		<path class="st15" d="M847.7,154.1c-0.2,0.8-0.6,1.3-1,1.6c-2.7,1.7-6.6,0.7-6.6,0.7l0.5,5.6c0,0,0.1,0.1,0.2,0.2
			c-10.6-3.2-10.1-14.4-10.1-14.4s4.6,5.4,10.3,7C844.1,155.6,846.4,154.9,847.7,154.1z"/>
		<path class="st8" d="M869.5,188.3c-0.4-0.6-0.9-1.2-1.4-1.8c-2.8-3.3-6-6.1-8.8-9.4c-1.4-1.6-2.6-3.4-3-5.5
			c-0.3-1.7,0-3.5,0.4-5.2c0.7-3.6,1.4-7.2,2.1-10.9c0.4-1.9,0.7-3.8,1.2-5.6c1.5,0.8,2.4,1.5,2.4,1.5s-3,15.9,3.7,28.8
			C867.4,182.5,868.5,185.2,869.5,188.3z"/>
		<polygon class="st3" points="850.6,185.8 858.2,184.4 856,195.6 861.8,193.6 857.8,212.5 856.9,201.6 852.2,203.8 		"/>
	</g>
	<g>
		<g>
			<g>
				<path class="st9" d="M407.2,146c-1.9,1.5-6.5,8.7-9.9,10.4c-1.5,0.7-3.6,6-5.6,11.7c-2.6,7.6-5,16.1-5,16.1s-10.7-4.7-13.1-16.7
					c0,0,10.1-13.3,12.3-17.6c0.1-0.2,0.2-0.4,0.3-0.7c1.6-4.6-0.4-13.9,0.4-15.4c0.9-1.5,2-1.5,2.4,0c0.3,1.6,0.7,6,0.7,6
					s1-10.6,1.9-11.8c0.8-1.2,2.7-0.5,2.9,0.5c0.2,1-0.5,9.9-0.5,9.9s2.7-11.1,3.8-12c1-0.9,2.9-0.7,2.9,0.8c0,1.5-2.1,11-2.2,11.6
					c0.3-0.6,5-9.6,6.2-10.1c1.2-0.5,2.6,0.7,2.2,2.2c-0.4,1.5-7.4,15.2-6.9,15.8c0.5,0.5,6.5-5,7.4-5
					C408,141.9,409,144.5,407.2,146z"/>
				<path class="st10" d="M391.6,168.1c-2.6,7.6-5,16.1-5,16.1s-10.7-4.7-13.1-16.7c0,0,10.1-13.3,12.3-17.6
					c0.1-0.2,0.2-0.4,0.3-0.7C387.7,155.5,390,161.8,391.6,168.1z"/>
				<path class="st7" d="M460.7,431.4l-4,0.4l-7.2,0.7c0,0-0.5-14.4-4.3-24.5c-3.7-10.1-10.1-27.2-11.7-30.4
					c-1.6-3.2-4.3-13.3-10.1-28.8c-5.9-15.5-18.2-47.5-18.2-47.5l-8.4,3.2c0,0-29.4,37.8-40.5,51.7c-11.2,13.9-27.7,18.1-29.3,21.9
					c-1.6,3.7-13.9,17-22.9,23.4c-4.4,3.1-9.6,8.6-13.7,13.5c0,0,0,0,0,0c-4.3,5.1-7.6,9.4-7.6,9.4l-5.5-3.5l-4.7-2.9
					c0,0,1.1-1.7,3-4.5c5.9-8.8,19-28.4,27.9-39.7c11.7-14.9,22.4-14.9,29.3-31.5c1.5-3.7,3.4-9.4,5.6-16c0.7-2.3,1.5-4.8,2.3-7.3
					c0.9-2.7,1.8-5.6,2.7-8.4c0.6-1.8,1.2-3.6,1.8-5.4c0.5-1.5,1-3,1.5-4.5c5.5-16.2,11.5-31.3,17.1-35.2c0.2-0.1,0.4-0.2,0.5-0.4
					c0.3-0.2,0.6-0.3,0.9-0.4c3.7-1.3,7,1.2,11.6,3.5c3.3,1.7,7.2,3.3,12.5,3.6c2.7,0.1,5.7-0.1,9.1-0.8c1.1-0.2,2.1-0.5,3.1-0.8
					c0,0,0,0,0,0c16.9-5.4,19.8-22.1,19.8-22.1s9.2,1.4,15.6,22.7c0.8,2.7,1.6,5.5,2.2,8.2c0.6,2.6,1.2,5.1,1.7,7.7
					c0.5,2.6,0.9,5.1,1.3,7.7c0.4,2.7,0.8,5.4,1.1,8.1c1.3,10.9,1.8,21.4,2.1,30.9c0.5,18.7,8.5,29.9,10.7,48.5
					C458.1,400.5,460.7,431.4,460.7,431.4z"/>
				<path class="st8" d="M414.2,265.7c-1.5,8.2-8.8,14.3-16.6,17.3c-8.3,3.2-17.7,3.7-26.3,1.3c-2.7-0.7-5.3-1.7-8.1-1.6
					c-0.6,0-1.2,0.1-1.5,0.6c-0.4,0.5-0.1,1.3,0.1,1.9c3.9,9.7,7.8,19.5,11.7,29.2c0.4,0.9,0.7,1.8,0.6,2.7
					c-0.1,0.9-0.8,1.9-1.7,1.9c-0.6,0-1.2-0.3-1.7-0.7c-8.2-5.6-16.3-11.5-24.1-17.7c6-17.6,12.6-33.9,18.5-35.9
					c7.7-2.6,13.5,10.5,33.2,6.3c1.1-0.2,2.1-0.5,3.1-0.8c0,0,0,0,0,0C405.9,269.9,410.2,267.8,414.2,265.7z"/>
				<path class="st8" d="M458.8,430.7c-0.7,0.4-1.4,0.7-2.1,1.1l-7.2,0.7c0,0-0.5-14.4-4.3-24.5c-3.7-10.1-10.1-27.2-11.7-30.4
					c-1.6-3.2-4.3-13.3-10.1-28.8c-5.9-15.5-18.2-47.5-18.2-47.5l-8.4,3.2c0,0-29.4,37.8-40.5,51.7c-11.2,13.9-27.7,18.1-29.3,21.9
					c-1.6,3.7-13.9,17-22.9,23.4c-9.1,6.4-21.3,22.9-21.3,22.9l-5.5-3.5l3.1-2.1c8.7-10.3,17.3-20.7,26-31
					c3.6-4.3,7.3-8.6,11.5-12.3c4.9-4.2,10.5-7.4,15.9-10.9c20.9-13.6,38.5-32.5,50.6-54.3c0.7-1.2,1.3-2.4,2.2-3.3
					c1.3-1.3,3-2,4.6-2.8c9.9-4.8,18.3-12.2,26.5-19.6c-2.5,11.1,2.7,22.3,7.2,32.8c4.8,11.3,8.7,23.1,9.6,35.3
					c0.4,5.5,0.3,11.3,3.2,16c0.7,1.2,1.7,2.3,2.3,3.6c0.9,1.9,1,4,1.2,6.1C443,396.9,451,414,458.8,430.7z"/>
				<path class="st9" d="M405.9,277.7c-14.8,6-41.6-6.7-41.6-6.7l0-2l-0.1-18.3c0,0,29.8-37.3,38.4-27.2c4,4.7,8.3,10.3,11.8,15
					c4,5.4,6.9,9.5,6.9,9.5S421.5,271.4,405.9,277.7z"/>
				<path class="st10" d="M414.4,238.6c-2.9,2.5-5.4,5.3-7.3,8.7c-2.1,3.7-3.3,7.8-5.2,11.5c-1.8,3.5-4.1,6.6-6.9,9.3
					c-1.5,1.4-3.1,2.7-5,3.5c-1.9,0.8-4,1-6.1,1.1c-6.7,0.3-13.4-1-19.6-3.6l-0.1-18.3c0,0,29.8-37.3,38.4-27.2
					C406.6,228.3,410.9,233.9,414.4,238.6z"/>
				<path class="st16" d="M421.4,227.6c-4.8,10.2-13.5,5.2-21.1,23.9c-1.5,3.6-3.6,6.6-6,8.9c-6.9,6.7-16.6,8.6-22.6,7.7
					c-10.9-1.6-14.9-8.8-16.3-14.4c-0.9-3.8-0.7-6.8-0.7-6.8l-7.5-13.3l-9.1,1.6c0,0-0.2-19.9,5.6-40.2c13.3-11.7,16.3-7,23.2-15.5
					c2-2.4,5.3-11.6,5-12.3c0.3,0.1,6.3,7.6,20.9,21.3C409.2,203.8,411.7,218.7,421.4,227.6z"/>
				<path class="st8" d="M394.3,260.5c-6.9,6.7-16.6,8.6-22.6,7.7c-10.9-1.6-14.9-8.8-16.3-14.4l2.6-13.6l5.7-27.6
					c0,0,3,19.3,13,22.3c10,3,12.3-5.3,20.9-5c8.6,0.3-2,3-5.6,6.3C388.4,239.5,375.8,255.9,394.3,260.5z"/>
				<path class="st9" d="M382.1,198.6c-5.3,0-13.6-6.5-30.8-5.5c-4.9,0.3-7.5,2.1-7.5,2.1c0-0.5,3.1-6.2,5.2-12.4
					c2.4-6.8-0.6-17.7-0.6-17.7s-11.1-18.5,1.5-30.2c12.7-11.6,26-1.2,28.8,5.1c2.7,6.3,6.6,28.3,3.8,33.4c-2,3.6-9.3,2.1-9.8,2.1
					l0,0l5.2,7.9l5.7,8.7C383.6,191.9,385.4,198.6,382.1,198.6z"/>
				<path class="st11" d="M294.5,424.9c-0.2,0.8-0.6,1.5-1.3,2.2c-3,3-8.5,6.1-13.5,12.6c-5,6.5-3.3,13.7-10.9,15
					c-7.6,1.3-17.9,0.2-19.2-2.6c-0.6-1.3-0.7-2.9,0.1-5.1c0.9-2.6,3-5.9,6.8-10.2c7-7.8,10.8-19.4,16-22.4c0,0,7.7-4.7,10.3,5.9
					c3.7-2.4,7.3-5.4,7.3-5.4l3.1,4.9C293.5,420,295.1,422.4,294.5,424.9z"/>
				<path class="st7" d="M294.5,424.9c-0.2,0.8-0.6,1.5-1.3,2.2c-3,3-8.5,6.1-13.5,12.6c-5,6.5-3.3,13.7-10.9,15
					c-7.6,1.3-17.9,0.2-19.2-2.6c-0.6-1.3-0.7-2.9,0.1-5.1c4,1.6,10.6,3.9,15.2,1.3C271.4,444.9,279.5,425.7,294.5,424.9z"/>
			</g>
		</g>
		<path class="st9" d="M386.1,331.4c-0.7,1.7-2.8,0.4-2.8,0.4s0,2.6-1.5,3.4c-1.5,0.7-2.8-1.5-2.8-1.5s-1.1,2.8-2.6,2.8
			s-2.2-5.4-5.2-9.1c-2.1-2.6-2.7-7.5-3.1-11.6c-0.2-1.8-0.3-3.4-0.5-4.6c-0.6-3.9-9.3-11.7-15.3-22c-6-10.2-12.7-22.7-12.9-24.6
			c-0.2-1.9,0.4-30,0.4-30c5-1.5,21.6-1.5,21.6-1.5l-0.3,6.8l-1.3,26.8c0,0,16,34.6,19.2,40c3.2,5.4,7.7,7.7,8.4,11
			C388.3,322.2,386.9,329.8,386.1,331.4z"/>
		<path class="st10" d="M368.7,316.8c-0.4,0.5-0.6,0-0.6-1c-0.2-1.8-0.3-3.4-0.5-4.6c-0.6-3.9-9.3-11.7-15.3-22
			c-6-10.2-12.7-22.7-12.9-24.6c-0.2-1.9,0.4-30,0.4-30c5-1.5,21.6-1.5,21.6-1.5l-0.3,6.8c-4.1,0-8.2,0.1-12.3,0.4
			c-0.8,0.1-1.7,0.2-2.3,0.6c-1,0.7-1.3,1.9-1.5,3c-2.6,12.6-0.3,26.1,6.2,37.2c3.4,5.8,8,10.9,11.6,16.6
			C366.5,303.4,369.3,310,368.7,316.8z"/>
		<path class="st16" d="M366.9,210.8c0,0-1.3,21-4.2,27.2c-5-1.9-10.2-2.5-14.7-2.6c-6.8-0.1-11.9,1-11.9,1s-0.6-27,4.9-37.8
			c0.8-1.6,1.7-2.8,2.8-3.5C357.2,185.8,366.9,210.8,366.9,210.8z"/>
		<path class="st9" d="M379.4,150.6c0.6,0.4,6.3,6.5,6.3,8c0,1.4-5.7,2.2-5.7,2.2"/>
		<path class="st7" d="M378.2,154.5c0,1.1-0.6,2-1.4,2c-0.8,0-1.4-0.9-1.4-2c0-1.1,0.6-2,1.4-2C377.6,152.5,378.2,153.4,378.2,154.5
			z"/>
		<path class="st11" d="M371.5,150.8c0,0,4.1-2.9,7.1-2C378.4,147,375.4,145.1,371.5,150.8z"/>
		<circle class="st12" cx="369.9" cy="159.4" r="3.7"/>
		<path class="st3" d="M375.6,162.1l5.9,2C381.5,164.1,377.8,166.5,375.6,162.1z"/>
		<path class="st11" d="M381.7,139.5c-3.2,2.9-9.6-0.8-9.6-0.8s0,6.5-6.1,3.7c-2.9,1.1-1.4,6.1-1.1,11c0.3,4.9-2.7,3.5-4.8-1.7
			c-1.7-4.1-6.5-0.4-7,3.7c-0.8,7.5,4.6,9.5,4.6,9.5s-0.2,0.7-0.5,1.8c-1.2,4.3-4.5,14.6-7.1,11.7c-8.5,1.3-8.9-8.7-8.9-8.7
			s-3.5,3.7-5.4-2.4c-7.2-2.3-7.9-7.2-4.8-16.2c-7.2-3-7.3-9.6-4.4-13.2c1-1.3,2.5-2.2,4.1-2.5c-2.9-6.5,3.6-12.4,9.8-9.8
			c-1.1-5.2,4.1-10.2,10.6-6.7c2.2-5.6,6.1-6.4,12.3-1.1c3.3-3.7,11.1-2,10.7,4.9c8.9-1.3,5.5,7.7,5.5,7.7S385,136.6,381.7,139.5z"
			/>
		<path class="st8" d="M357.3,166.6c-1.2,4.3-4.5,14.6-7.1,11.7c-8.5,1.3-8.9-8.7-8.9-8.7s-3.5,3.7-5.4-2.4
			c-7.2-2.3-7.9-7.2-4.8-16.2c-7.2-3-7.3-9.6-4.4-13.2c0,0.8,0.1,1.6,0.4,2.4c0.6,2.2,2.4,4.2,4.6,4.4c2.2,0.2,4.4-1.4,6.5-0.9
			c-1.1,2.3-1.9,5.1-0.9,7.4c1,2.4,4.5,3.7,6.2,1.8c-0.9,5,2.4,10,7,12.2C352.7,166,355,166.5,357.3,166.6z"/>
		<path class="st8" d="M348,235.4c-6.8-0.1-11.9,1-11.9,1s-0.6-27,4.9-37.8c0.7,4.2-0.4,9.4-0.1,13.3c0.5,6.8,2.1,13.5,5,19.6
			C346.5,232.9,347.2,234.2,348,235.4z"/>
		<path class="st11" d="M470.7,454.4c-2.4,2-19.4,2.4-22.2,0.9c-2.4-1.3-2.6-5.4-2-8.3c0.1-0.5,0.3-1,0.4-1.5
			c1.1-2.8,0.9-7.2,0.2-11.3c-0.7-4.1,1.5-8,1.5-8c6.1-4.8,9.4,1.7,9.4,1.7s0.4-0.3,1.7-3.8c3.5,0.5,6,4.5,6,8.6
			c0,4.1,5.8,7,7.5,11.1C475.1,447.8,473.1,452.4,470.7,454.4z"/>
		<path class="st7" d="M470.7,454.4c-2.4,2-19.4,2.4-22.2,0.9c-2.4-1.3-2.6-5.4-2-8.3c0.1,0,0.3,0,0.4,0.1c0,0,3.3,4.8,12.6,3.9
			c9.4-0.9,13.7-7.2,13.7-7.2C475.1,447.8,473.1,452.4,470.7,454.4z"/>
		<path class="st7" d="M267.3,435.3c0,0-0.1,0-0.1,0c-2.2-0.7-4.6-0.7-6.9-0.2c-0.3,0.1-0.5-0.1-0.6-0.4c-0.1-0.3,0.1-0.5,0.4-0.6
			c2.4-0.6,5-0.5,7.4,0.2c0.3,0.1,0.4,0.4,0.3,0.6C267.7,435.2,267.5,435.3,267.3,435.3z"/>
		<path class="st7" d="M268.5,429.5c0,0-0.1,0-0.1,0c-1.8-0.4-3.6-0.4-5.4,0c-0.3,0.1-0.5-0.1-0.6-0.4c-0.1-0.3,0.1-0.5,0.4-0.6
			c1.9-0.4,3.9-0.4,5.8,0c0.3,0.1,0.4,0.3,0.4,0.6C269,429.4,268.7,429.5,268.5,429.5z"/>
		<path class="st7" d="M265.2,425.1c-0.2,0-0.4-0.1-0.5-0.3c-0.1-0.3,0-0.5,0.3-0.6c1.9-0.7,4.1-0.8,6.1-0.2
			c0.3,0.1,0.4,0.4,0.3,0.6c-0.1,0.3-0.4,0.4-0.6,0.3c-1.8-0.5-3.7-0.5-5.4,0.2C265.3,425.1,265.2,425.1,265.2,425.1z"/>
		<path class="st7" d="M453.8,440.8c-0.2,0-0.4-0.1-0.5-0.3c-0.1-0.3,0.1-0.5,0.3-0.6c2.5-0.8,5.2-0.9,7.8-0.2
			c0.3,0.1,0.4,0.3,0.4,0.6c-0.1,0.3-0.3,0.4-0.6,0.4c-2.4-0.6-5-0.5-7.3,0.2C453.9,440.8,453.9,440.8,453.8,440.8z"/>
		<path class="st7" d="M453.8,437.1c-0.2,0-0.4-0.1-0.5-0.3c-0.1-0.3,0-0.5,0.3-0.6c3-1.1,5.2-1.1,8,0c0.3,0.1,0.4,0.4,0.3,0.6
			c-0.1,0.3-0.4,0.4-0.6,0.3c-2.6-1-4.5-1-7.3,0C453.9,437.1,453.9,437.1,453.8,437.1z"/>
		<path class="st7" d="M460.5,433.5c0,0-0.1,0-0.1,0c-2.2-0.6-4.5-0.6-6.8-0.1c-0.3,0.1-0.5-0.1-0.6-0.4c-0.1-0.3,0.1-0.5,0.4-0.6
			c2.4-0.5,4.9-0.5,7.2,0.1c0.3,0.1,0.4,0.3,0.4,0.6C461,433.3,460.8,433.5,460.5,433.5z"/>
		<path class="st11" d="M340.7,319l11.8,12.9l-2.8,4.8l-11.4-10.4C339.1,324,339.9,321.6,340.7,319z"/>
		<path class="st11" d="M361.1,320.3l-2.7,5.8l-14.9-15.5c0.6-1.8,1.2-3.6,1.8-5.4L361.1,320.3z"/>
		<path class="st11" d="M440.8,286.7l-3.2,5.8l-1.7-4.8l3.3-8.7C439.7,281.6,440.3,284.1,440.8,286.7z"/>
		<path class="st11" d="M443.2,302.5l-1.9,3.4l-1.7-4.8l2.5-6.7C442.5,297.1,442.9,299.8,443.2,302.5z"/>
		<path class="st10" d="M377.9,183.2c-2.1,0.9-5.6,1.7-8.8-0.5c-4.9-3.5-4.2-10.8-4.2-10.8l7.8,3.4L377.9,183.2z"/>
		<path class="st10" d="M358.7,162.1c-0.2,0-0.4,0-0.6-0.1c-0.6-0.2-1.1-0.6-1.3-1.1c-0.1-0.3,0-0.5,0.3-0.7c0.3-0.1,0.5,0,0.7,0.3
			c0.1,0.2,0.4,0.4,0.7,0.5c0.3,0.1,0.6,0.1,0.8-0.1c0.5-0.3,0.7-0.9,0.7-2c0-1.1-0.1-2.3-0.3-3.4c-0.1-0.5-0.3-1.2-0.7-1.6
			c-0.3-0.3-0.6-0.5-0.8-0.5c-0.5-0.1-1,0.5-1.4,1.1c-0.2,0.2-0.5,0.3-0.7,0.1c-0.2-0.2-0.3-0.5-0.1-0.7c0.4-0.5,1.1-1.5,2.2-1.5
			c0.6,0,1.1,0.3,1.6,0.9c0.5,0.6,0.8,1.4,0.9,2c0.3,1.2,0.4,2.4,0.4,3.7c0,1.4-0.4,2.3-1.2,2.8C359.4,162,359.1,162.1,358.7,162.1z
			"/>
		<path class="st10" d="M357.9,157.2c-0.2,0-0.4-0.2-0.5-0.4c-0.1-0.3,0.1-0.5,0.4-0.6l2.2-0.5c0.3-0.1,0.5,0.1,0.6,0.4
			c0.1,0.3-0.1,0.5-0.4,0.6l-2.2,0.5C357.9,157.2,357.9,157.2,357.9,157.2z"/>
	</g>
	<g>
		<g>
			<path class="st16" d="M234.7,308c-0.3,10.8-4.1,37.5-6.5,53.2v0c-1.1,7.1-1.9,12-1.9,12s-2,0.3-11.9-4
				c-4.1-27.6-2.9-52.4-5.7-57.6c-4.7-8.6-16.6-33.6-16.6-33.6s-21,25.9-33.7,43.1c-11.7,15.9-45.4,49.7-46.5,53
				c-1.1,3.4-1.6,3.1-11.3-4.3c3.8-10,8.5-19.1,13.1-27.2c9.1-15.6,18.3-27.3,21.9-35c5.6-11.5,23.1-56.6,23.1-56.6l48.6-13.8
				l3.9-1.1c0,0,0.8,1.4,2,3.7c2.3,4.5,6.3,12.7,9.6,21.6c0,0,0,0,0,0.1C227.8,274.9,235.1,292.3,234.7,308z"/>
			<path class="st8" d="M228.2,361.2L228.2,361.2c-1.1,7.1-1.9,12-1.9,12s-2,0.3-11.9-4c-4.1-27.6-2.9-52.4-5.7-57.6
				c-4.7-8.6-16.6-33.6-16.6-33.6l4-4c0,0,17.6,25.6,19.3,34.9C216.8,316.9,214.1,349.9,228.2,361.2z"/>
			<path class="st8" d="M222.9,261.5c-4.2-0.8-8.5-1.5-12.8-1.8c-9.3-0.8-19.4-0.1-26.5,6c-8.4,7.2-9.8,20-17.7,27.9
				c-3.7,3.6-8.4,5.9-12.8,8.7c-15.8,10.3-25.4,28-39.4,40.5c9.1-15.6,18.3-27.3,21.9-35c5.6-11.5,23.1-56.6,23.1-56.6l48.6-13.8
				c0.3,0.1,0.7,0.2,1,0.4c1.7,0.6,3.3,1.4,4.9,2.2C215.7,244.4,219.7,252.6,222.9,261.5z"/>
			<path class="st7" d="M111.7,381.5c-2.3,2-7.9,5.2-10.3,11c0,0.1-0.1,0.2-0.1,0.3c-2.2,5.6-1.6,10.4-11.2,10.3
				c-9.8-0.1-11.3-5.1-11.5-10.5c0-1.8,0.5-3.2,1.4-4.4c1.8-2.5,4.8-4.1,6.7-5.9c2.8-2.7,4.8-7.3,6.6-11.9c1.8-4.5,8.7-4.3,8.7-4.3
				l11.3,5.6C113.3,371.8,114,379.6,111.7,381.5z"/>
			<path class="st7" d="M252.3,396.6c-2.1,3.2-21.2,1.4-30.8,0c-9.6-1.4-12.2-2.5-11.1-6.3c0.1-0.2,0.1-0.5,0.2-0.7
				c1.2-3.9,3.2-10.8,1.6-14.6c-1.7-4,1.5-8.6,1.5-8.6c8.8,3.8,12.6,1.8,12.6,1.8c2,0.2,2.1,3.5,2.3,6.8c0.1,1.9,0.3,3.7,0.9,5
				c1.2,2.4,6.4,5.7,11.6,7.8c2.3,1,4.6,1.7,6.4,2.1c2.2,0.4,3.6,1,4.6,1.7C253.8,392.8,253.6,394.6,252.3,396.6z"/>
			<path class="st9" d="M205,70.5c-1,3-0.7,9.7-2.5,12.7c-1.7,3-2.2,8.7-2.5,17.9c-0.2,9.2-2.5,24.4-4,31.4
				c-1.5,6.8-4.5,22.6-4.6,23.4c0,0,0,0,0,0l-18.2-2.6c0,0,9.1-20.7,11.2-25.9c1.6-4.1,2.6-11.3,4.2-18c0.4-1.8,0.9-3.5,1.4-5.1
				c2.4-7.6,1.9-16.1,2-18.1c0.1-2-2.1-6-2.6-7.8s-1.6-7.7-1.6-8.8c0-1.1,1.6-1.6,2.2-0.9c0.6,0.7,2.9,4.9,2.9,4.9l1.4-3.4
				c0,0-1.6-6.6-1.9-7.7c-0.3-1.1,0.3-1.7,1.3-1.5c1,0.2,3.3,7.1,3.3,7.1s-0.3-6-0.1-6.9c0.2-0.9,1.7-1.5,2.1-0.9
				c0.4,0.6,1.5,7.3,1.5,7.3s0.1-4.2,0.5-5.3c0.4-1.1,1.3-0.8,2.1-0.3c0.8,0.5,0.1,6.5,0.1,6.5s1-3.2,1.9-3.1
				C205.9,65.5,206,67.5,205,70.5z"/>
			<path class="st10" d="M191.4,155.8C191.4,155.8,191.4,155.8,191.4,155.8l-18.2-2.5c0,0,9.1-20.7,11.2-25.9
				c1.6-4.1,2.6-11.3,4.2-18C188.8,124.9,189.8,140.4,191.4,155.8z"/>
			<path class="st9" d="M170.8,278.5c-5,0.7-7.4-4-8-1.1c-0.5,2.5,3.6,7.9,4.7,10c0.2,0.5-0.2,1.9-1.1,2c1.1,1.1,0.6,3.3-0.1,3.3
				c-1,0-5.2-3.4-5.5-3.6l1.9,5.4c-0.1,0.7-1.2,0.9-1.9,0.9c-0.8,0-6.6-7.9-6.6-7.9l0.4,6.8c0,0-1.5,1-2.3-0.2
				c-0.8-1.2-2.8-11.5-3-16c-0.2-4.5-3.4-8-6.3-17.9c-2.8-9.9-6.1-25-6.3-29.8c-0.1-2.3-0.1-8.3,0-13.8c0.1-6.1,0.2-11.7,0.2-11.7
				l16,5.5l-3.1,18.8c0,0-0.6,4.2,0.2,11.8c0.5,4.7,0.6,10.8,1.8,15.7c0.7,3,1.8,5.6,3.7,7.1c4.8,3.9,8.4,7.7,11.5,9.8
				c3.3,2.2,6.5,1.8,6.5,1.8S174,278,170.8,278.5z"/>
			<path class="st10" d="M150,241c0.5,4.7,0.6,10.8,1.8,15.7c-2.1-3.6-3.7-7.6-4.8-11.7c-2.3-8.3-3-17-3.7-25.7
				c-0.1-0.7-0.1-1.4-0.6-1.9c-0.4-0.4-1.1-0.5-1.7-0.6c-1.4-0.2-2.8-0.2-4.2-0.2c0.1-6.1,0.2-11.7,0.2-11.7l16,5.5l-3.1,18.8
				C149.8,229.2,149.2,233.4,150,241z"/>
			<path class="st7" d="M220.4,252.3l-5.9-2.1c-5.5-2-11.5-1.7-16.9,0.7c-6.6,3-16,7.3-23.7,10.9c-13.4,6.2-18.9,0-19.4-4.7
				c-0.5-4.7,1-25.1,1.2-31c0.2-6-1.5-11.7-1.5-11.7s-2.9-0.6-6.7-1c-3.8-0.4-8.3-0.7-11.7-0.2c-0.7-10.7,1.4-20.2,4.4-29.6
				c3-9.4,10.2-15.7,10.2-15.7s6.2-7.2,13.4-13h0c3.6-2.9,7.5-5.5,11-6.6c4.4-1.4,8.5-1,11.8-0.1c4.6,1.3,7.6,3.5,7.6,3.5
				s-5.7,17.7-2.5,22.8c3,4.8,8.2,11.3,8.8,14.4c1.3,6.1,2.2,13.3,3.2,20.3c1.3,9.4,8.1,17,11.2,22.2v0
				C221.4,242.4,220.4,252.3,220.4,252.3z"/>
			<path class="st17" d="M203.8,209.3c-1-0.7-2.1-1.4-3.1-2.2c-1.9-1.3-4-2.7-6.3-3.2c-4.3-0.8-8.9,1.8-13.1,0.7
				c2.8-5.2,10.8-4.2,15.3-8.1c1.7-1.5,2.7-3.5,3.6-5.6c0.1-0.6,0.2-1.3,0.4-2C201.9,195.1,202.9,202.3,203.8,209.3z"/>
			<path class="st17" d="M186.7,148.2c-2.1,5.8-3.5,11.8-4.3,17.8c-0.3,2-0.5,4.1-1.5,5.9c-1,1.8-3,3.2-5,2.8
				c-0.9-0.2-1.7-0.7-2.4-1.2c-3.9-2.7-7.9-5.4-11.8-8c-0.4-0.2-0.7-0.5-0.9-0.9c-0.2-0.5-0.1-1,0.1-1.5c0.9-2.8,1.9-5.5,3.1-8.2h0
				c3.6-2.9,7.5-5.5,11-6.6C179.4,146.9,183.4,147.3,186.7,148.2z"/>
			<path class="st17" d="M220.4,252.3l-5.9-2.1c-5.5-2-11.5-1.7-16.9,0.7c-6.6,3-16,7.3-23.7,10.9c-13.4,6.2-18.9,0-19.4-4.7
				c-0.1-0.7-0.1-1.8-0.1-3.2c0-7.5,1.1-22.8,1.3-27.8c0.2-6-1.5-11.7-1.5-11.7s-2.9-0.6-6.7-1c2.3-3.2,4.2-6.6,5.7-10.2
				c1.1-2.6,2-5.4,4.1-7.3c-0.1,5,0,9.9,0.4,14.9c0.1,1.5,0.3,3.1,1.1,4.4c1.1,1.8,3.1,2.7,5,3.5c3.5,1.5,7,2.9,10.5,4.4
				c-3.3,2.4-8,0-12,0.5c-0.5,0.1-1,0.2-1.3,0.5c-0.6,0.6-0.4,1.7,0,2.5c2.8,6.2,10.3,8.5,17.1,9.2c7.4,0.8,15,0.3,22.3-1.4
				c4.8-1.1,9.5-2.7,14.4-3v0c4,6.7,5.1,13.1,5.4,16.9C220.6,250.9,220.4,252.3,220.4,252.3z"/>
			<path class="st9" d="M166.2,175.1c-1.1-0.4-2.3-0.8-3.4-1.3c-8.7-3.9-12.2-5.8-12.2-5.8l4-16.5c0,0-5.5-7.6-4.6-15
				c0.8-7.3,5-17.2,18.7-15c6.8,1.1,11.8,8.1,11,16.4c-0.4,4.6,0.6,12.7-1.1,15.7c-0.2,0.4-0.5,0.7-0.8,0.9c-2.7,1.7-5.3,1-5.3,1v7
				c0,0,0,0.1,0.1,0.1c0.8,0.8,4.7,4.7,6.6,8c0.4,0.7,0.7,1.3,0.9,1.9C182,177.5,174.4,178,166.2,175.1z"/>
			<path class="st3" d="M166.2,175.1c3.8-0.8,8.9-2.2,13-4.5c0.4,0.7,0.7,1.3,0.9,1.9C182,177.5,174.4,178,166.2,175.1z"/>
		</g>
		<path class="st9" d="M177.6,135.9c0.5,0.4,5.5,5.7,5.5,6.9c0,1.2-5,1.9-5,1.9"/>
		<path class="st7" d="M177.7,138.5c0,0.7-0.4,1.3-0.9,1.3c-0.5,0-0.9-0.6-0.9-1.3c0-0.7,0.4-1.3,0.9-1.3
			C177.3,137.2,177.7,137.8,177.7,138.5z"/>
		<path class="st7" d="M172.5,137.2c0,0,3.5-2.5,6.2-1.8C178.5,133.9,175.9,132.3,172.5,137.2z"/>
		<circle class="st12" cx="170.4" cy="142.2" r="2.5"/>
		<path class="st3" d="M174.6,144.5l3.7,1.7C178.3,146.2,176,148.3,174.6,144.5z"/>
		<path class="st7" d="M155.1,118.5c-8.6,3-20.6,0.3-27.9,0.6c-7.3,0.2-8.3,7.5-8.3,7.5l4.7,4.1l-2.2,1.5c0,0,0.2,0.5,0.7,1.4
			l3.6-0.9l-3,2c0.3,0.6,0.6,1.2,1,1.9l7.9-4.7l-6.9,6.5c0.2,0.4,0.5,0.9,0.8,1.4l2.9-0.7l-2.1,2c1.5,2.6,3.3,5.2,5.1,7.3l3.3-2.4
			l-2.4,3.4c0.7,0.7,1.4,1.3,2,1.7c0,0,13.4,7.7,19.2,6.2c1.4-1.1,5.7-9.1,6.6-13.7c-3.4,0.6-4.8-7.5-2.6-8.8c3-1.8,5.3,3.8,5.3,3.8
			s1.6-1.8,4.3-8.4c2.2-5.3,10.9-2,10.9-2C181.4,123.2,168.3,113.8,155.1,118.5z"/>
		<path class="st10" d="M160.8,140.9c-0.1,0-0.1,0-0.2,0c-0.3-0.1-0.4-0.4-0.3-0.6c0.3-0.9,0.2-1.9-0.2-2.7
			c-0.1-0.2-0.3-0.4-0.4-0.5c-0.2-0.1-0.4-0.2-0.6-0.2c-0.4,0-0.7,0.1-0.9,0.3c-0.2,0.2-0.5,0.2-0.7,0c-0.2-0.2-0.2-0.5,0-0.7
			c0.4-0.4,1-0.6,1.6-0.6c0.5,0,0.9,0.1,1.2,0.3c0.3,0.2,0.5,0.4,0.7,0.8c0.6,1.1,0.7,2.4,0.3,3.5
			C161.2,140.7,161,140.9,160.8,140.9z"/>
		<path class="st10" d="M159.1,139.3c-0.1,0-0.3-0.1-0.4-0.2c-0.2-0.2-0.2-0.5,0-0.7c0.5-0.4,1.1-0.8,1.7-1.2
			c0.2-0.1,0.5-0.1,0.7,0.2c0.1,0.2,0.1,0.5-0.2,0.7c-0.5,0.3-1,0.7-1.5,1.1C159.3,139.3,159.2,139.3,159.1,139.3z"/>
		<path class="st7" d="M172.6,130.2c-2.1,0.5-4.2,0.7-6.2,1.6c-4.1,1.9-6.3,6.4-10.1,8.7c-2.1,1.2-4.6,1.7-7,1.5
			c-1.7-0.2-3.4-0.7-5.1-0.2c2.2-0.5,4.4-1.6,6-3.2c2.4-2.3,3.5-5.7,5.4-8.3c1.3-1.8,3.1-3.3,5.1-4.4c1.5-0.8,3.2-1.4,4.9-1.5
			c1.8-0.1,3.6,0.2,5.3,0.5c1.5,0.3,6.1,0.3,6.6,2.1C178.2,129,173.9,129.9,172.6,130.2z"/>
		<path class="st7" d="M178.3,127.4c-0.5,1.2-1.1,2.5-1.8,3.6c-0.9,1.4-2.1,2.6-3.5,3.4c-3.3,2.1-7.6,2.4-10.7,4.8
			c-2.6,2-4,5.2-4.8,8.3c-0.4-2,0.4-4.1,1.3-6c0.8-1.6,1.7-3.3,3.2-4.4c2.5-1.9,5.9-1.8,8.8-2.8c3.5-1.2,6.3-4.3,7.3-7.8"/>
		<path class="st10" d="M178.6,153.6c-0.2,0.4-0.5,0.7-0.8,0.9c-2.7,1.7-5.3,1-5.3,1v7c0,0,0,0.1,0.1,0.1c-6.4-3-9.4-13-9.6-13.7
			c0.1,0.3,0.9,2.3,6.7,4.8C173.5,155.4,176.7,154.5,178.6,153.6z"/>
		<path class="st10" d="M194.7,74.6c0,0,4.6,1.8,4,5.6C200.1,77.3,196.8,73.5,194.7,74.6z"/>
		<path class="st10" d="M196.8,70.3c0.4,0,3.7,0.1,5.9,1.4C201.4,69.5,196.8,70.3,196.8,70.3z"/>
		<path class="st11" d="M101.3,392.8c-2.2,5.6-1.6,10.4-11.2,10.3c-9.8-0.1-11.3-5.1-11.5-10.5c0-1.8,0.5-3.2,1.4-4.4
			c-0.2,1.7-0.2,3.4,0.1,5.1c0.1,0.6,0.3,1.1,0.7,1.5c0.8,0.8,2,0.5,3.1,0.5c2,0,4,1,5.1,2.6c0.3,0.5,0.6,1,1,1.4
			c0.9,0.9,2.3,1.1,3.5,0.8c1.2-0.3,2.2-1.1,3.2-2C98.4,396.5,99.8,394.6,101.3,392.8z"/>
		<path class="st11" d="M252.3,396.6c-2.1,3.2-21.2,1.4-30.8,0c-9.6-1.4-12.2-2.5-11.1-6.3c0.1-0.2,0.1-0.5,0.2-0.7
			c4.6,2.5,9.8,3.9,15,4.8c5.2,0.9,10.6,1.2,15.9,1.5c1.7,0.1,3.5,0.1,4.9-0.7c1-0.6,1.8-1.5,2.7-2.2c0.9-0.7,1.9-1.2,3-1.5
			C253.8,392.8,253.6,394.6,252.3,396.6z"/>
		<path class="st11" d="M99.2,372.8c0,0-8,11.5-9.4,13.6c-1.4,2.1,3.3,4.6,4.9,2.6s9.6-12.9,9.6-12.9L99.2,372.8z"/>
		<path class="st11" d="M241.2,387.7c-0.6,0.9-2.4,1.6-7.7-0.1c-9.2-2.9-7.8-11.8-7.8-11.8l3.1-0.9c0.1,1.9,0.3,3.7,0.9,5
			C230.8,382.3,236,385.6,241.2,387.7z"/>
		<path class="st3" d="M97.5,388.1c-0.1,0-0.1,0-0.2,0c-7.8-3.7-7.9-3.9-8-4.1c-0.2-0.2-0.1-0.5,0.1-0.7c0.2-0.1,0.5-0.1,0.6,0.1
			c0.5,0.3,4.9,2.5,7.7,3.8c0.2,0.1,0.4,0.4,0.2,0.7C97.8,388,97.7,388.1,97.5,388.1z"/>
		<path class="st3" d="M100.4,383.7c-0.1,0-0.2,0-0.2-0.1l-7-4c-0.2-0.1-0.3-0.4-0.2-0.7c0.1-0.2,0.4-0.3,0.7-0.2l7,4
			c0.2,0.1,0.3,0.4,0.2,0.7C100.8,383.6,100.6,383.7,100.4,383.7z"/>
		<path class="st3" d="M103.5,380c-0.1,0-0.2,0-0.3-0.1c-2.6-1.5-6.8-4-7.3-4.2c-0.2-0.1-0.4-0.3-0.4-0.5c0-0.3,0.2-0.5,0.5-0.5
			c0.2,0,0.4,0,7.7,4.4c0.2,0.1,0.3,0.4,0.2,0.7C103.8,380,103.7,380,103.5,380z"/>
		<path class="st3" d="M225.3,380.9c-0.2,0-0.5-0.2-0.5-0.4c0-0.3,0.2-0.5,0.4-0.6l4.9-0.7c0.3,0,0.5,0.2,0.6,0.4
			c0,0.3-0.2,0.5-0.4,0.6L225.3,380.9C225.4,380.9,225.4,380.9,225.3,380.9z"/>
		<path class="st3" d="M227.2,385.4c-0.2,0-0.4-0.1-0.5-0.3c-0.1-0.2,0-0.5,0.2-0.7l5.2-2.5c0.2-0.1,0.5,0,0.7,0.2
			c0.1,0.2,0,0.5-0.2,0.7l-5.2,2.5C227.4,385.3,227.3,385.4,227.2,385.4z"/>
		<path class="st3" d="M233.1,389c-0.1,0-0.3-0.1-0.4-0.2c-0.2-0.2-0.2-0.5,0-0.7l3.7-3.4c0.2-0.2,0.5-0.2,0.7,0
			c0.2,0.2,0.2,0.5,0,0.7l-3.7,3.4C233.3,389,233.2,389,233.1,389z"/>
		<path class="st3" d="M220.4,252.3l-5.9-2.1c-5.5-2-11.5-1.7-16.9,0.7c-6.6,3-16,7.3-23.7,10.9c-13.4,6.2-18.9,0-19.4-4.7
			c-0.1-0.7-0.1-1.8-0.1-3.2c0.9,1.2,2,2.2,3.2,2.9c3.3,1.9,7.4,2,11.1,1.5c3.6-0.6,7.1-1.8,10.4-3.4c7.9-3.9,15.2-10.3,24.1-10.5
			c3.5-0.1,6.9,0.8,10.2,1.9c2.3,0.7,4.6,1.5,6.9,2.3C220.6,250.9,220.4,252.3,220.4,252.3z"/>
	</g>
</g>
</svg>
