<svg xmlns="http://www.w3.org/2000/svg" width="282.003" height="80" viewBox="0 0 282.003 80"><g transform="translate(-93.554 1.04)"><g transform="translate(298 -1.04)"><path d="M70.83,100.135c-4.5.753-17.318,2.4-27.759-3.374a27.875,27.875,0,0,1-5.83-4.19c-4.97-4.672-6.845-9.986-8.273-14.176-1.358-4.007-3.726-14.853-5.351-21.315a10.75,10.75,0,0,0-2.475-5.251,3.672,3.672,0,0,0-3.459-1.118c-3.018.63-3.691,3.853-3.808,6.48-.13,3.267.035,15.046.035,15.046L5.554,80.364.06,85.678S.019,76.253.019,66.188C.019,62.432,0,58.58,0,55.105c0-2.337.019-4.48.019-6.37a25.847,25.847,0,0,1,.866-6.691c0-.041.019-.079.019-.12a17.355,17.355,0,0,1,1.428-3.613,14.513,14.513,0,0,1,4.091-5,13.084,13.084,0,0,1,2.812-1.638,14.3,14.3,0,0,1,9.752-.255,16.289,16.289,0,0,1,3.862,1.815,20.238,20.238,0,0,1,3.266,2.637,22.185,22.185,0,0,1,4.6,6.59.745.745,0,0,1,.079.139,32.858,32.858,0,0,1,1.952,4.974c2.374,7.687,3.881,15.575,5.995,23.312a54.585,54.585,0,0,0,5.331,13.039A32.015,32.015,0,0,0,56.419,96.443,30.767,30.767,0,0,0,70.83,100.135Z" transform="translate(0 -20.942)" fill="#9ec229"/><path d="M21.14.807c4.5-.753,17.321-2.4,27.762,3.377a27.836,27.836,0,0,1,5.833,4.19C59.7,13.046,61.58,18.36,63.008,22.55c1.361,4,3.723,14.853,5.351,21.308a10.737,10.737,0,0,0,2.475,5.251,3.672,3.672,0,0,0,3.459,1.118c3.018-.63,3.688-3.853,3.808-6.477.13-3.27-.035-15.049-.035-15.049l8.369-8.128,5.493-5.311s.038,9.426.038,19.491c0,3.752.022,7.608.022,11.083,0,2.334-.022,4.492-.022,6.37a25.839,25.839,0,0,1-.879,6.7c0,.041-.019.082-.019.12a17.751,17.751,0,0,1-1.425,3.6c-.1.18-.317.573-.635,1.058a14.463,14.463,0,0,1-3.865,4.234,12.7,12.7,0,0,1-2.91,1.534,13.2,13.2,0,0,1-5.322.769,15.707,15.707,0,0,1-4.443-.9c-.511-.17-.9-.331-.993-.369a15.424,15.424,0,0,1-2.447-1.317A19.854,19.854,0,0,1,66.4,65.589a22.194,22.194,0,0,1-2.723-3.053,23.364,23.364,0,0,1-2.425-4.058.745.745,0,0,1-.079-.139,32.858,32.858,0,0,1-1.952-4.974c-2.374-7.687-3.881-15.575-5.995-23.312a54.608,54.608,0,0,0-5.331-13.042A32.018,32.018,0,0,0,35.554,4.487,30.771,30.771,0,0,0,21.14.807Z" transform="translate(-14.432 -0.001)" fill="#f5df4d"/></g><path d="M296.92,83.519V55.443q0-3.767,1.46-5.395t4.8-1.618a6.2,6.2,0,0,1,4.192,1.219,9.167,9.167,0,0,1,2.282,4.4l6.687,25.686a3.009,3.009,0,0,0,.555,1.2,1.123,1.123,0,0,0,.825.292q1.06,0,1.06-1.752V50.88a2.868,2.868,0,0,1,.479-1.964,2.852,2.852,0,0,1,1.961-.476h.533a2.868,2.868,0,0,1,1.961.476,2.883,2.883,0,0,1,.479,1.964V78.956q0,3.808-1.406,5.395t-4.646,1.587a6.436,6.436,0,0,1-4.322-1.269,9.51,9.51,0,0,1-2.415-4.617l-6.582-25.137a3.774,3.774,0,0,0-.559-1.406,1.076,1.076,0,0,0-.876-.346q-1.063,0-1.06,1.856v28.5a2.882,2.882,0,0,1-.476,1.964,2.851,2.851,0,0,1-1.964.476h-.53a1.944,1.944,0,0,1-2.444-2.44Z" transform="translate(-203.366 -33.246)" fill="#9ec229"/><path d="M425.467,91.217q0,.216-.1,2.336a2.168,2.168,0,0,1-2.707,2.44H407.908v1.168a4.736,4.736,0,0,0,1.777,4.167q1.777,1.25,5.811,1.247a28.833,28.833,0,0,0,6.9-.838c.851-.213,1.426-.184,1.727.079a2.438,2.438,0,0,1,.451,1.777v.682a2.8,2.8,0,0,1-.4,1.777,3.83,3.83,0,0,1-1.777.822,25.608,25.608,0,0,1-6.9.851q-6.741,0-9.9-2.736t-3.158-8.622V91.747q0-11.514,11.783-11.517,5.531,0,8.388,2.783T425.467,91.217ZM407.9,90.208v1.327h12.424V90.208q0-5.255-6.261-5.252-6.16,0-6.157,5.252Z" transform="translate(-275.623 -55.018)" fill="#9ec229"/><path d="M494.6,82.606l2.494,17.772a4.364,4.364,0,0,0,.663,2.044,1.764,1.764,0,0,0,1.457.555,1.739,1.739,0,0,0,1.434-.584,4.243,4.243,0,0,0,.689-2.015L503.4,85.411a6.831,6.831,0,0,1,1.669-4.034,5.587,5.587,0,0,1,3.954-1.168,5.835,5.835,0,0,1,3.98,1.142,6.655,6.655,0,0,1,1.7,4.065l2.069,14.966a4.364,4.364,0,0,0,.663,2.044,1.767,1.767,0,0,0,1.46.555,1.739,1.739,0,0,0,1.431-.584,4.275,4.275,0,0,0,.692-2.015l2.494-17.772a3.173,3.173,0,0,1,.742-1.9,3.07,3.07,0,0,1,1.961-.479h.8c.952,0,1.568.159,1.831.479a2.641,2.641,0,0,1,.187,1.9l-2.586,18.038q-.635,3.869-2.282,5.465t-5.252,1.587a6.259,6.259,0,0,1-4.76-1.618q-1.523-1.619-2.044-5.439l-1.755-13.519a6.274,6.274,0,0,0-.451-1.8.911.911,0,0,0-.876-.419.857.857,0,0,0-.822.425,6.273,6.273,0,0,0-.451,1.8L505.95,100.66q-.53,3.869-2.015,5.465t-4.725,1.587q-3.659,0-5.331-1.587t-2.2-5.465l-2.6-18.045a2.572,2.572,0,0,1,.187-1.9,2.447,2.447,0,0,1,1.831-.479h.8a2.984,2.984,0,0,1,1.961.479A3.236,3.236,0,0,1,494.6,82.606Z" transform="translate(-334.985 -55.005)" fill="#9ec229"/><path d="M629.719,78.207V50.88a2.756,2.756,0,0,1,.476-1.9,2.757,2.757,0,0,1,1.9-.476h.692a2.757,2.757,0,0,1,1.9.476,2.756,2.756,0,0,1,.476,1.9V77.15a5.381,5.381,0,0,0,.584,2.92,2.151,2.151,0,0,0,1.9.85,2.478,2.478,0,0,1,1.672.371,2.844,2.844,0,0,1,.346,1.749v.527a2.57,2.57,0,0,1-.425,1.723,2.391,2.391,0,0,1-1.181.593,5.118,5.118,0,0,1-1.314.178,6.771,6.771,0,0,1-5.2-1.99Q629.7,82.082,629.719,78.207Z" transform="translate(-431.213 -33.295)" fill="#9ec229"/><path d="M673.011,54.2A3.262,3.262,0,0,1,672,51.811a3.091,3.091,0,0,1,1.006-2.336,3.275,3.275,0,0,1,2.39-1.006,3.451,3.451,0,0,1,3.348,3.342,3.274,3.274,0,0,1-1.006,2.39,3.174,3.174,0,0,1-2.336.952A3.367,3.367,0,0,1,673.011,54.2Zm-.378,29.453V61.731a2.738,2.738,0,0,1,.479-1.9,2.762,2.762,0,0,1,1.9-.476h.689a2.749,2.749,0,0,1,1.9.476,2.754,2.754,0,0,1,.479,1.9V83.651a2.736,2.736,0,0,1-.479,1.9,2.8,2.8,0,0,1-1.9.479h-.689a2.736,2.736,0,0,1-1.9-.479A2.8,2.8,0,0,1,672.634,83.651Z" transform="translate(-460.148 -33.273)" fill="#9ec229"/><path d="M716.649,90.525v14.808a2.749,2.749,0,0,1-.476,1.9,2.789,2.789,0,0,1-1.9.479h-.688a2.736,2.736,0,0,1-1.9-.479,2.787,2.787,0,0,1-.476-1.9V90.525q0-10.292,11.568-10.295,5.947,0,8.73,2.52t2.786,7.775v14.808a1.91,1.91,0,0,1-2.38,2.383h-.692a2.728,2.728,0,0,1-1.9-.479,2.81,2.81,0,0,1-.476-1.9V90.525q0-2.856-1.33-4.03t-4.751-1.168q-3.45,0-4.776,1.168T716.649,90.525Z" transform="translate(-487.285 -55.018)" fill="#9ec229"/><path d="M823.279,91.217q0,.216-.108,2.336a2.166,2.166,0,0,1-2.707,2.44H805.711v1.168a4.733,4.733,0,0,0,1.78,4.167q1.78,1.25,5.811,1.247a28.846,28.846,0,0,0,6.9-.837c.851-.213,1.425-.185,1.727.079a2.438,2.438,0,0,1,.451,1.777v.682a2.805,2.805,0,0,1-.4,1.777,3.83,3.83,0,0,1-1.777.822,25.642,25.642,0,0,1-6.9.85q-6.741,0-9.9-2.736t-3.173-8.622V91.747q0-11.514,11.78-11.517,5.522,0,8.388,2.786T823.279,91.217Zm-17.569-1.009v1.327h12.421V90.208q0-5.255-6.265-5.252Q805.714,84.955,805.711,90.208Z" transform="translate(-548.061 -55.018)" fill="#9ec229"/><path d="M302.114,198.691h-3.2v3.154a1.092,1.092,0,0,1-.171.717.952.952,0,0,1-.7.187h-.27a.952.952,0,0,1-.7-.187,1.072,1.072,0,0,1-.175-.717v-7.369a2.012,2.012,0,0,1,.428-1.428,1.844,1.844,0,0,1,1.374-.444h4.008a.971.971,0,0,1,.692.187,1.05,1.05,0,0,1,.181.717v.14a1.05,1.05,0,0,1-.181.727.99.99,0,0,1-.692.181h-3.348a.406.406,0,0,0-.451.467v1.717h3.2a.99.99,0,0,1,.692.181,1.054,1.054,0,0,1,.178.727v.156a1.054,1.054,0,0,1-.178.717A.971.971,0,0,1,302.114,198.691Z" transform="translate(-203.297 -131.995)" fill="#939597"/><path d="M325.252,207.588a3.768,3.768,0,0,1-2.717-.86,3.48,3.48,0,0,1-.885-2.605v-1.247a3.422,3.422,0,0,1,.923-2.571,3.679,3.679,0,0,1,2.678-.895,3.722,3.722,0,0,1,2.7.857,3.517,3.517,0,0,1,.87,2.609v1.247a3.453,3.453,0,0,1-.908,2.577A3.653,3.653,0,0,1,325.252,207.588Zm1.606-3.465v-1.247a1.676,1.676,0,0,0-.343-1.2,2.5,2.5,0,0,0-2.539.006,1.625,1.625,0,0,0-.359,1.2v1.247a1.615,1.615,0,0,0,.365,1.187,2.492,2.492,0,0,0,2.539.01,1.621,1.621,0,0,0,.343-1.2Z" transform="translate(-220.249 -136.646)" fill="#939597"/><path d="M350.4,202.4v4.126a1.054,1.054,0,0,1-.165.7.952.952,0,0,1-.676.171h-.282a.952.952,0,0,1-.676-.171,1.053,1.053,0,0,1-.165-.7V202.24a2.727,2.727,0,0,1,.793-2.117,3.358,3.358,0,0,1,2.329-.724h.165a.72.72,0,0,1,.6.216,1.346,1.346,0,0,1,.165.781v.175a.924.924,0,0,1-.149.635.863.863,0,0,1-.616.111h-.165a1.349,1.349,0,0,0-.911.232A1.146,1.146,0,0,0,350.4,202.4Z" transform="translate(-238.576 -136.636)" fill="#939597"/><path d="M376.446,201.845v-8.337a1.092,1.092,0,0,1,.171-.717.952.952,0,0,1,.7-.187h.27a.952.952,0,0,1,.7.187,1.092,1.092,0,0,1,.171.717v8.337a1.092,1.092,0,0,1-.171.717.952.952,0,0,1-.7.187h-.27a.952.952,0,0,1-.7-.187A1.092,1.092,0,0,1,376.446,201.845Z" transform="translate(-257.751 -131.994)" fill="#939597"/><path d="M390.758,202.561v3.964a1.054,1.054,0,0,1-.165.7.952.952,0,0,1-.676.171h-.283a.952.952,0,0,1-.676-.171,1.053,1.053,0,0,1-.165-.7v-3.964a3.048,3.048,0,0,1,.863-2.348,3.631,3.631,0,0,1,2.558-.8,3.712,3.712,0,0,1,2.567.771,3.122,3.122,0,0,1,.828,2.38v3.964a1.073,1.073,0,0,1-.165.7.952.952,0,0,1-.676.171h-.286a.952.952,0,0,1-.676-.171,1.053,1.053,0,0,1-.165-.7v-3.964a1.269,1.269,0,0,0-.317-.968,2.539,2.539,0,0,0-2.266,0A1.209,1.209,0,0,0,390.758,202.561Z" transform="translate(-266.219 -136.646)" fill="#939597"/><path d="M413.205,193.378v-.063a1.041,1.041,0,0,1,.149-.635,1.082,1.082,0,0,1,.587-.3l.612-.14v-.635a3.106,3.106,0,0,1,.714-2.272,2.972,2.972,0,0,1,2.187-.708,6.559,6.559,0,0,1,.765.044.952.952,0,0,1,.666.289,1.269,1.269,0,0,1,.175.758v.156c0,.343-.051.555-.152.635a1.022,1.022,0,0,1-.689.06c-.317-.019-.527-.029-.616-.029q-1.095,0-1.095.889v.806h1.561a.952.952,0,0,1,.673.171,1.047,1.047,0,0,1,.165.7v.171a1.06,1.06,0,0,1-.165.7.952.952,0,0,1-.673.171h-1.561v5.008a1.051,1.051,0,0,1-.168.7.952.952,0,0,1-.673.171H415.4a.952.952,0,0,1-.673-.171,1.051,1.051,0,0,1-.168-.7v-5.008h-.6a.838.838,0,0,1-.6-.159A.914.914,0,0,1,413.205,193.378Z" transform="translate(-282.933 -129.287)" fill="#939597"/><path d="M437.305,207.588a3.773,3.773,0,0,1-2.72-.86,3.48,3.48,0,0,1-.885-2.605v-1.247a3.422,3.422,0,0,1,.923-2.571,4.572,4.572,0,0,1,5.382-.038,3.513,3.513,0,0,1,.873,2.609v1.247a3.446,3.446,0,0,1-.911,2.577A3.66,3.66,0,0,1,437.305,207.588Zm1.606-3.465v-1.247a1.661,1.661,0,0,0-.346-1.2,1.773,1.773,0,0,0-1.269-.343,1.755,1.755,0,0,0-1.269.349,1.625,1.625,0,0,0-.362,1.2v1.247a1.615,1.615,0,0,0,.352,1.187,1.8,1.8,0,0,0,1.269.352,1.826,1.826,0,0,0,1.269-.343A1.619,1.619,0,0,0,438.911,204.123Z" transform="translate(-296.975 -136.646)" fill="#939597"/><path d="M462.431,202.4v4.126a1.054,1.054,0,0,1-.165.7.952.952,0,0,1-.676.171H461.3a.952.952,0,0,1-.676-.171,1.054,1.054,0,0,1-.165-.7V202.24a2.721,2.721,0,0,1,.8-2.117,3.349,3.349,0,0,1,2.326-.724h.165a.724.724,0,0,1,.6.216,1.371,1.371,0,0,1,.165.781v.175a.9.9,0,0,1-.152.635.854.854,0,0,1-.616.111h-.165a1.336,1.336,0,0,0-.908.232A1.146,1.146,0,0,0,462.431,202.4Z" transform="translate(-315.285 -136.636)" fill="#939597"/><path d="M478.518,202.561v3.964a1.054,1.054,0,0,1-.165.7.952.952,0,0,1-.673.171h-.286a.952.952,0,0,1-.676-.171,1.054,1.054,0,0,1-.165-.7v-3.964a3.178,3.178,0,0,1,.809-2.342,3.242,3.242,0,0,1,2.4-.809,2.443,2.443,0,0,1,2.221,1,2.523,2.523,0,0,1,2.221-1,2.776,2.776,0,0,1,3.183,3.151v3.964a1.054,1.054,0,0,1-.165.7.952.952,0,0,1-.676.171h-.286a.952.952,0,0,1-.676-.171,1.054,1.054,0,0,1-.165-.7v-3.964a1.418,1.418,0,0,0-.254-.968,1.345,1.345,0,0,0-.952-.263,1.447,1.447,0,0,0-1.012.263,1.365,1.365,0,0,0-.263.968v3.964a1.073,1.073,0,0,1-.165.7.952.952,0,0,1-.676.171h-.225a.952.952,0,0,1-.676-.171,1.054,1.054,0,0,1-.165-.7v-3.964a1.014,1.014,0,0,0-1.247-1.231,1.028,1.028,0,0,0-1.247,1.231Z" transform="translate(-326.328 -136.646)" fill="#939597"/><path d="M520.648,202.108v2.98a2.288,2.288,0,0,1-.8,1.9,3.852,3.852,0,0,1-2.463.616,4.1,4.1,0,0,1-2.463-.6,2.185,2.185,0,0,1-.8-1.866q0-2.437,3.05-2.434H518.7v-.593a.784.784,0,0,0-.362-.743,2.539,2.539,0,0,0-1.2-.209,9.348,9.348,0,0,0-1.306.092.866.866,0,0,1-.671-.07.9.9,0,0,1-.171-.663v-.063a1.094,1.094,0,0,1,.159-.686,1.067,1.067,0,0,1,.635-.267A11.616,11.616,0,0,1,517,199.43a4.767,4.767,0,0,1,2.739.635A2.339,2.339,0,0,1,520.648,202.108Zm-1.952,2.856v-.749h-1.549q-1.066,0-1.066.857a.8.8,0,0,0,.317.663,1.9,1.9,0,0,0,.952.149,1.818,1.818,0,0,0,.984-.181.908.908,0,0,0,.362-.724Z" transform="translate(-352.047 -136.66)" fill="#939597"/><path d="M537.16,196.769v-.063a1.073,1.073,0,0,1,.152-.657,1.022,1.022,0,0,1,.584-.279l.616-.14.181-1.234a1.015,1.015,0,0,1,.241-.635,1.05,1.05,0,0,1,.66-.155h.089a.92.92,0,0,1,.635.155,1.012,1.012,0,0,1,.149.657v1.212h1.717a.952.952,0,0,1,.673.171,1.044,1.044,0,0,1,.168.7v.171a1.057,1.057,0,0,1-.168.7.952.952,0,0,1-.673.171H540.47v3.088q0,1.047.952,1.047a5.367,5.367,0,0,0,1.05-.092.952.952,0,0,1,.67.022c.1.079.159.282.159.616v.171a1.288,1.288,0,0,1-.175.765,1.1,1.1,0,0,1-.654.346,4.687,4.687,0,0,1-1.05.092q-2.9,0-2.9-2.98V197.55h-.6a.835.835,0,0,1-.6-.159.911.911,0,0,1-.165-.622Z" transform="translate(-367.812 -132.679)" fill="#939597"/><path d="M561.309,190.856a1.127,1.127,0,0,1-1.653,0,1.2,1.2,0,0,1-.346-.857,1.209,1.209,0,0,1,.346-.86,1.133,1.133,0,0,1,1.653,0,1.21,1.21,0,0,1,.346.86,1.2,1.2,0,0,1-.346.857Zm-1.8,8.413v-6.055a1.047,1.047,0,0,1,.165-.7.952.952,0,0,1,.676-.171h.27a.952.952,0,0,1,.676.171,1.047,1.047,0,0,1,.165.7v6.055a1.053,1.053,0,0,1-.165.7.952.952,0,0,1-.676.171h-.27a.952.952,0,0,1-.676-.171A1.054,1.054,0,0,1,559.507,199.269Z" transform="translate(-382.966 -129.391)" fill="#939597"/><path d="M574.322,207.588a3.768,3.768,0,0,1-2.717-.86,3.48,3.48,0,0,1-.885-2.605v-1.247a3.422,3.422,0,0,1,.923-2.571,3.679,3.679,0,0,1,2.678-.895,3.729,3.729,0,0,1,2.7.857,3.517,3.517,0,0,1,.87,2.609v1.247a3.453,3.453,0,0,1-.908,2.577A3.673,3.673,0,0,1,574.322,207.588Zm1.609-3.465v-1.247a1.676,1.676,0,0,0-.346-1.2,2.5,2.5,0,0,0-2.539.006,1.625,1.625,0,0,0-.359,1.2v1.247a1.616,1.616,0,0,0,.359,1.193,2.492,2.492,0,0,0,2.539.01,1.682,1.682,0,0,0,.346-1.2Z" transform="translate(-390.8 -136.646)" fill="#939597"/><path d="M599.448,202.561v3.964a1.053,1.053,0,0,1-.165.7.952.952,0,0,1-.676.171h-.283a.952.952,0,0,1-.676-.171,1.054,1.054,0,0,1-.165-.7v-3.964a3.048,3.048,0,0,1,.863-2.348,3.631,3.631,0,0,1,2.558-.8,3.712,3.712,0,0,1,2.567.771,3.139,3.139,0,0,1,.835,2.38v3.964a1.073,1.073,0,0,1-.165.7.952.952,0,0,1-.676.171h-.286a.952.952,0,0,1-.676-.171,1.053,1.053,0,0,1-.165-.7v-3.964a1.27,1.27,0,0,0-.3-.968,2.539,2.539,0,0,0-2.266,0A1.209,1.209,0,0,0,599.448,202.561Z" transform="translate(-409.119 -136.646)" fill="#939597"/><path d="M633.154,193.649v-.14a1.092,1.092,0,0,1,.171-.717.968.968,0,0,1,.7-.187h6.058a.971.971,0,0,1,.692.187,1.07,1.07,0,0,1,.178.717v.14a1.072,1.072,0,0,1-.178.727.99.99,0,0,1-.692.181H638.07v7.3a1.05,1.05,0,0,1-.181.717.952.952,0,0,1-.689.187h-.292a.952.952,0,0,1-.7-.187,1.072,1.072,0,0,1-.174-.717v-7.3h-2.012a.987.987,0,0,1-.7-.181A1.094,1.094,0,0,1,633.154,193.649Z" transform="translate(-433.549 -131.996)" fill="#939597"/><path d="M667.642,202.764q0,.108-.029.609a1.13,1.13,0,0,1-.247.7,1.174,1.174,0,0,1-.73.162h-3.808v.235a.981.981,0,0,0,.463.9,2.951,2.951,0,0,0,1.5.289,9.113,9.113,0,0,0,1.818-.219q.479-.108.635.048a1.051,1.051,0,0,1,.159.7v.171a1.177,1.177,0,0,1-.152.7,1.215,1.215,0,0,1-.635.317,6.664,6.664,0,0,1-1.831.2,4.478,4.478,0,0,1-2.974-.819,3.279,3.279,0,0,1-.952-2.6v-1.25q0-3.51,3.491-3.51Q667.642,199.4,667.642,202.764Zm-4.817-.422v.235h2.958v-.235c0-.79-.5-1.187-1.488-1.187s-1.469.406-1.469,1.2Z" transform="translate(-452.521 -136.639)" fill="#939597"/><path d="M685.911,204.245v-1.5a3.215,3.215,0,0,1,.952-2.45,3.714,3.714,0,0,1,2.65-.889,3.808,3.808,0,0,1,.977.108,1.145,1.145,0,0,1,.635.317,1.268,1.268,0,0,1,.156.736v.171c0,.352-.054.578-.165.67s-.317.1-.635.032a3.472,3.472,0,0,0-.952-.108,1.9,1.9,0,0,0-1.269.317,1.5,1.5,0,0,0-.368,1.139V204.2a1.433,1.433,0,0,0,.4,1.155,2.234,2.234,0,0,0,1.39.317,4.716,4.716,0,0,0,.917-.1.857.857,0,0,1,.66.048.953.953,0,0,1,.165.673v.155a1.184,1.184,0,0,1-.165.727,1.238,1.238,0,0,1-.66.317,4.1,4.1,0,0,1-1.006.108Q685.911,207.587,685.911,204.245Z" transform="translate(-469.665 -136.645)" fill="#939597"/><path d="M706.672,200.194v-9.178a1.066,1.066,0,0,1,.165-.7.952.952,0,0,1,.676-.171h.286a.952.952,0,0,1,.676.171,1.047,1.047,0,0,1,.165.7v2.951a2.882,2.882,0,0,1,2.3-.889,2.7,2.7,0,0,1,1.8.635,2.58,2.58,0,0,1,.749,2.063v4.443a1.054,1.054,0,0,1-.165.7.952.952,0,0,1-.676.171h-.286a.952.952,0,0,1-.676-.171,1.073,1.073,0,0,1-.165-.7v-4.1a1.076,1.076,0,0,0-.317-.86,1.437,1.437,0,0,0-.952-.263,1.555,1.555,0,0,0-1.225.444,2.146,2.146,0,0,0-.4,1.444v3.307a1.054,1.054,0,0,1-.165.7.952.952,0,0,1-.676.171H707.5a.952.952,0,0,1-.676-.171,1.072,1.072,0,0,1-.156-.7Z" transform="translate(-484.188 -130.315)" fill="#939597"/><path d="M734.751,202.561v3.964a1.072,1.072,0,0,1-.165.7.952.952,0,0,1-.676.171h-.286a.952.952,0,0,1-.676-.171,1.053,1.053,0,0,1-.165-.7v-3.964a3.058,3.058,0,0,1,.863-2.348,3.618,3.618,0,0,1,2.561-.8,3.663,3.663,0,0,1,2.567.771,3.109,3.109,0,0,1,.825,2.38v3.964a1.053,1.053,0,0,1-.165.7.952.952,0,0,1-.676.171h-.286a.952.952,0,0,1-.676-.171,1.053,1.053,0,0,1-.165-.7v-3.964a1.247,1.247,0,0,0-.317-.968,2.539,2.539,0,0,0-2.266,0,1.218,1.218,0,0,0-.3.968Z" transform="translate(-502.014 -136.646)" fill="#939597"/><path d="M762.055,207.588a3.779,3.779,0,0,1-2.72-.86,3.463,3.463,0,0,1-.885-2.605v-1.247a3.422,3.422,0,0,1,.924-2.571,4.572,4.572,0,0,1,5.382-.038,3.513,3.513,0,0,1,.873,2.609v1.247a3.445,3.445,0,0,1-.911,2.577A3.66,3.66,0,0,1,762.055,207.588Zm1.606-3.465v-1.247a1.661,1.661,0,0,0-.346-1.2,1.773,1.773,0,0,0-1.269-.343,1.755,1.755,0,0,0-1.269.349,1.625,1.625,0,0,0-.362,1.2v1.247a1.615,1.615,0,0,0,.362,1.193,1.8,1.8,0,0,0,1.269.352,1.826,1.826,0,0,0,1.269-.343A1.637,1.637,0,0,0,763.661,204.123Z" transform="translate(-519.54 -136.646)" fill="#939597"/><path d="M785.214,198.712v-7.7a1.048,1.048,0,0,1,.165-.7.952.952,0,0,1,.676-.171h.27a.952.952,0,0,1,.676.171,1.047,1.047,0,0,1,.165.7v7.245a1.612,1.612,0,0,0,.149.819.575.575,0,0,0,.511.225h.076a.5.5,0,0,1,.413.133,1.138,1.138,0,0,1,.1.584v.3a1.338,1.338,0,0,1-.1.635.587.587,0,0,1-.406.235,3.754,3.754,0,0,1-.451.032,2.129,2.129,0,0,1-1.653-.635A2.7,2.7,0,0,1,785.214,198.712Z" transform="translate(-537.805 -130.315)" fill="#939597"/><path d="M801.245,207.588a3.775,3.775,0,0,1-2.72-.86,3.467,3.467,0,0,1-.885-2.605v-1.247a3.422,3.422,0,0,1,.923-2.571,3.684,3.684,0,0,1,2.682-.895,3.731,3.731,0,0,1,2.7.857,3.5,3.5,0,0,1,.87,2.609v1.247a3.511,3.511,0,0,1-.908,2.577A3.619,3.619,0,0,1,801.245,207.588Zm1.606-3.465v-1.247a1.661,1.661,0,0,0-.346-1.2,2.5,2.5,0,0,0-2.539.006,1.624,1.624,0,0,0-.362,1.2v1.247a1.616,1.616,0,0,0,.371,1.187,1.8,1.8,0,0,0,1.269.352,1.826,1.826,0,0,0,1.269-.343,1.62,1.62,0,0,0,.346-1.2Z" transform="translate(-546.293 -136.646)" fill="#939597"/><path d="M830.373,200.68v.092q0,2.9-3.364,2.9a5.19,5.19,0,0,0-1.161.079.317.317,0,0,0-.279.317c0,.146.092.241.279.289a5.871,5.871,0,0,0,1.161.07,5.461,5.461,0,0,1,2.824.514,2.055,2.055,0,0,1,.765,1.844,2.216,2.216,0,0,1-.765,1.9,5.08,5.08,0,0,1-2.824.546,5.853,5.853,0,0,1-2.856-.5,1.752,1.752,0,0,1-.765-1.587,1.615,1.615,0,0,1,.752-1.482,1.32,1.32,0,0,1-.527-1.155,1.486,1.486,0,0,1,1.155-1.453,2.458,2.458,0,0,1-1.155-2.294v-.092a2.577,2.577,0,0,1,.895-2.091,3.761,3.761,0,0,1,2.5-.749,4,4,0,0,1,1.323.2l.87-.657a1.016,1.016,0,0,1,.6-.273.911.911,0,0,1,.558.336l.044.044a1.025,1.025,0,0,1,.336.549.977.977,0,0,1-.292.562l-.54.635A2.259,2.259,0,0,1,830.373,200.68Zm-3.364,5.493a10.1,10.1,0,0,1-1.244-.048.721.721,0,0,0-.406.72.527.527,0,0,0,.3.546,4.642,4.642,0,0,0,1.349.124,5.781,5.781,0,0,0,1.2-.092.533.533,0,0,0,.419-.578c0-.3-.1-.492-.317-.562A4.761,4.761,0,0,0,827.01,206.174Zm1.4-5.395v-.092a.99.99,0,0,0-.317-.819,1.748,1.748,0,0,0-1.076-.26,1.806,1.806,0,0,0-1.095.26.978.978,0,0,0-.317.819v.092a1.066,1.066,0,0,0,.317.876,1.761,1.761,0,0,0,1.095.263,1.7,1.7,0,0,0,1.082-.263,1.092,1.092,0,0,0,.311-.882Z" transform="translate(-563.867 -135.076)" fill="#939597"/><path d="M850.835,200.847l.993,4.716a1,1,0,0,0,.232.53.717.717,0,0,0,.473.124.441.441,0,0,0,.346-.14,1.341,1.341,0,0,0,.209-.514l.99-4.716a1.27,1.27,0,0,1,.317-.685,1.1,1.1,0,0,1,.7-.171h.317q.508,0,.635.171a.953.953,0,0,1,.022.685l-1.5,6.947a5.078,5.078,0,0,1-1.149,2.482,3.577,3.577,0,0,1-2.094,1.047,1.127,1.127,0,0,1-.721-.048,1.108,1.108,0,0,1-.286-.673l-.016-.076a1.009,1.009,0,0,1,0-.689.9.9,0,0,1,.578-.3,2.028,2.028,0,0,0,1.625-1.618,1.837,1.837,0,0,1-.616.063,1.612,1.612,0,0,1-1.269-.476,3.992,3.992,0,0,1-.682-1.711l-1.1-4.947a.953.953,0,0,1,.022-.685q.127-.171.635-.171h.317a1.1,1.1,0,0,1,.7.171A1.3,1.3,0,0,1,850.835,200.847Z" transform="translate(-581.205 -137.039)" fill="#939597"/></g></svg>